<svg id="Vrstva_1" data-name="Vrstva 1" xmlns="http://www.w3.org/2000/svg" xmlns:xlink="http://www.w3.org/1999/xlink" viewBox="0 0 354 354"><defs><style>.cls-1{fill:#fff;}.cls-2{fill:url(#Nepojmenovaný_přechod_11);}.cls-3{fill:url(#Nepojmenovaný_přechod_11-2);}.cls-4{fill:#1d1d1b;}.cls-5{mask:url(#mask);}.cls-6{opacity:0.3;}</style><linearGradient id="Nepojmenovaný_přechod_11" x1="537.8" y1="357.81" x2="831.33" y2="357.81" gradientUnits="userSpaceOnUse"><stop offset="0" stop-color="#e30613"/><stop offset="1" stop-color="#8f0613"/></linearGradient><linearGradient id="Nepojmenovaný_přechod_11-2" x1="653.56" y1="486.19" x2="673.46" y2="486.19" xlink:href="#Nepojmenovaný_přechod_11"/><mask id="mask" x="21.79" y="2.8" width="310.42" height="305.89" maskUnits="userSpaceOnUse"><g transform="translate(-499.12 -209.4)"><path class="cls-1" d="M734,352.56c3.5,0,6.93.13,10.35.39h0c3,.23,6.07.54,9.05,1h0A137.18,137.18,0,0,1,768.91,357H769c1,0,2-.08,3.06-.16a64.3,64.3,0,0,0,59.23-64.08,63.57,63.57,0,0,0-4.49-23.58H760.45A71.74,71.74,0,0,1,717.31,252a58.4,58.4,0,0,1-5-4.75,71.69,71.69,0,0,1-18.71-35c.05.73.05,1.43.05,2.15a64.24,64.24,0,0,1-29,53.76l-.31.18c-.47.23-.91.49-1.4.78-1.32.75-2.65,1.53-3.94,2.33A251.55,251.55,0,0,0,577,351.26a249.72,249.72,0,0,0-39.2,134.52c0,5.94.21,11.8.62,17.64h31.16c0-.44,0-.91,0-1.35A54.56,54.56,0,0,1,678,493.77a.23.23,0,0,0,0,.13,44,44,0,0,1,.47,9.52h30.9c.29-3.71.44-7.45.44-11.23a142.1,142.1,0,0,0-3.74-32.46,51,51,0,0,1,18.29-3.35,51.76,51.76,0,0,1,51.52,47h24.28a155,155,0,0,0-34.66-89.82,44.71,44.71,0,0,0,3.79-38.94,44.76,44.76,0,0,1-19,22.78A156,156,0,0,0,706.8,369q4.09-7.74,8.72-15.15A136.56,136.56,0,0,1,734,352.56Z"/><path class="cls-1" d="M653.56,503.42h19.74c.1-1.3.16-2.62.16-3.94v-.23c-.05-11.7-5.4-24.6-11.16-30.28C656.18,479.42,653.69,490.45,653.56,503.42Z"/></g></mask></defs><title>logo_mail</title><rect class="cls-1" width="354" height="354"/><path class="cls-2" d="M734,352.56c3.5,0,6.93.13,10.35.39h0c3,.23,6.07.54,9.05,1h0A137.18,137.18,0,0,1,768.91,357H769c1,0,2-.08,3.06-.16a64.3,64.3,0,0,0,59.23-64.08,63.57,63.57,0,0,0-4.49-23.58H760.45A71.74,71.74,0,0,1,717.31,252a58.4,58.4,0,0,1-5-4.75,71.69,71.69,0,0,1-18.71-35c.05.73.05,1.43.05,2.15a64.24,64.24,0,0,1-29,53.76l-.31.18c-.47.23-.91.49-1.4.78-1.32.75-2.65,1.53-3.94,2.33A251.55,251.55,0,0,0,577,351.26a249.72,249.72,0,0,0-39.2,134.52c0,5.94.21,11.8.62,17.64h31.16c0-.44,0-.91,0-1.35A54.56,54.56,0,0,1,678,493.77a.23.23,0,0,0,0,.13,44,44,0,0,1,.47,9.52h30.9c.29-3.71.44-7.45.44-11.23a142.1,142.1,0,0,0-3.74-32.46,51,51,0,0,1,18.29-3.35,51.76,51.76,0,0,1,51.52,47h24.28a155,155,0,0,0-34.66-89.82,44.71,44.71,0,0,0,3.79-38.94,44.76,44.76,0,0,1-19,22.78A156,156,0,0,0,706.8,369q4.09-7.74,8.72-15.15A136.56,136.56,0,0,1,734,352.56Z" transform="translate(-499.12 -209.4)"/><path class="cls-3" d="M653.56,503.42h19.74c.1-1.3.16-2.62.16-3.94v-.23c-.05-11.7-5.4-24.6-11.16-30.28C656.18,479.42,653.69,490.45,653.56,503.42Z" transform="translate(-499.12 -209.4)"/><path class="cls-4" d="M538.86,514.26h11.39c7.2,0,10.74,4,10.74,11.32v23.17c0,7.33-3.54,11.32-10.74,11.32H538.86Zm7.2,6.54v32.73h4.06c2.29,0,3.67-1.18,3.67-4.45V525.26c0-3.27-1.37-4.45-3.67-4.45Z" transform="translate(-499.12 -209.4)"/><path class="cls-4" d="M565,525.26c0-7.33,3.86-11.52,10.93-11.52s10.93,4.19,10.93,11.52v23.83c0,7.33-3.86,11.52-10.93,11.52S565,556.41,565,549.08Zm7.2,24.28c0,3.27,1.44,4.51,3.73,4.51s3.73-1.24,3.73-4.51V524.8c0-3.27-1.44-4.51-3.73-4.51s-3.73,1.24-3.73,4.51Z" transform="translate(-499.12 -209.4)"/><path class="cls-4" d="M602.3,534.55h10.08v14.53c0,7.33-3.67,11.52-10.73,11.52s-10.74-4.19-10.74-11.52V525.26c0-7.33,3.67-11.52,10.74-11.52s10.73,4.19,10.73,11.52v4.46h-6.81V524.8c0-3.27-1.44-4.51-3.73-4.51s-3.73,1.24-3.73,4.51v24.74c0,3.27,1.44,4.45,3.73,4.45s3.73-1.18,3.73-4.45v-8.45H602.3Z" transform="translate(-499.12 -209.4)"/><path class="cls-4" d="M648.07,543v6.09c0,7.33-3.67,11.52-10.73,11.52s-10.74-4.19-10.74-11.52V525.26c0-7.33,3.67-11.52,10.74-11.52s10.73,4.19,10.73,11.52v4.46h-6.81V524.8c0-3.27-1.44-4.51-3.73-4.51s-3.73,1.24-3.73,4.51v24.74c0,3.27,1.44,4.45,3.73,4.45s3.73-1.18,3.73-4.45V543Z" transform="translate(-499.12 -209.4)"/><path class="cls-4" d="M652.47,514.26h7.2v45.81h-7.2Z" transform="translate(-499.12 -209.4)"/><path class="cls-4" d="M662.82,514.26h22.25v6.54h-7.53v39.27h-7.2V520.81h-7.53Z" transform="translate(-499.12 -209.4)"/><path class="cls-4" d="M695,544.89l-9.1-30.63h7.53l5.43,20.88H699l5.43-20.88h6.87l-9.1,30.63v15.18H695Z" transform="translate(-499.12 -209.4)"/><path class="cls-4" d="M724.3,514.26h7.2v39.27h11.85v6.54h-19Z" transform="translate(-499.12 -209.4)"/><path class="cls-4" d="M746.5,514.26h7.2v45.81h-7.2Z" transform="translate(-499.12 -209.4)"/><path class="cls-4" d="M766.14,534.62h9.29v6.54h-9.29v18.91h-7.2V514.26h19v6.54H766.14Z" transform="translate(-499.12 -209.4)"/><path class="cls-4" d="M788.67,533.57h9.88v6.54h-9.88v13.42H801.1v6.54H781.47V514.26H801.1v6.54H788.67Z" transform="translate(-499.12 -209.4)"/><g class="cls-5"><g class="cls-6"><path class="cls-4" d="M785.54,505.37c1.3-40.65-40.13-72.46-79.41-45.63,11.31,11.91,65.14,47.58,65.14,47.58Z" transform="translate(-499.12 -209.4)"/><path class="cls-4" d="M673.55,260.2c-25.08,21.19-59.24,36.75-59.24,101.18,0,59.38,88.21,77.83,82.59,156.53-78.7,1.73-176-9.08-176-9.08l27.24-194.58Z" transform="translate(-499.12 -209.4)"/></g></g></svg>