<?xml version="1.0" encoding="utf-8"?>
<!-- Generator: Adobe Illustrator 21.0.0, SVG Export Plug-In . SVG Version: 6.00 Build 0)  -->
<svg version="1.1" id="Vrstva_1" xmlns="http://www.w3.org/2000/svg" xmlns:xlink="http://www.w3.org/1999/xlink" x="0px" y="0px"
	 viewBox="0 0 34 34" style="enable-background:new 0 0 34 34;" xml:space="preserve">
<style type="text/css">
	.st0{fill:#636363;}
</style>
<title>ikony serie</title>
<path class="st0" d="M20.9,19.2l9.6-9.6c0.6-0.6,0.6-1.5,0-2.1c-0.3-0.3-0.7-0.4-1-0.4c0,0,0,0,0,0h-6.3l1.8-5.5H29
	c0.4,0,0.7-0.3,0.7-0.7S29.4,0.3,29,0.3h-5.1l-2.3,6.9h-3.4c-0.4-3.8-3.6-6.9-7.5-6.9c-4.2,0-7.6,3.4-7.6,7.6s3.4,7.6,7.6,7.6
	c0.4,0,0.7-0.3,0.7-0.7S11.1,14,10.7,14c-3.4,0-6.2-2.8-6.2-6.2s2.8-6.2,6.2-6.2c3.2,0,5.8,2.4,6.1,5.5h-6.6c0,0,0,0,0,0
	c-0.4,0-0.8,0.2-1,0.4c-0.3,0.3-0.4,0.6-0.4,1c0,0.4,0.2,0.8,0.4,1l9.6,9.6c0.1,0.1,0.2,0.2,0.3,0.3V30h-3.6c-0.4,0-0.8,0.2-1,0.4
	l-0.8,0.8c-0.3,0.3-0.4,0.6-0.4,1c0,0.4,0.2,0.8,0.4,1s0.6,0.4,1,0.4h10.1c0,0,0,0,0,0c0.4,0,0.8-0.2,1-0.4c0.6-0.6,0.6-1.5,0-2.1
	l-0.8-0.8c-0.3-0.3-0.6-0.4-1-0.4h-3.6V19.5C20.7,19.4,20.8,19.3,20.9,19.2z M24.1,31.4C24.1,31.4,24.1,31.4,24.1,31.4l0.8,0.8
	c0,0,0,0.1,0,0.1c0,0,0,0,0,0H14.8c0,0,0,0,0,0c0,0,0,0,0,0s0,0,0,0l0.8-0.8c0,0,0,0,0,0H24.1z M19.9,18.3
	C19.8,18.3,19.8,18.3,19.9,18.3l-9.7-9.6l0,0c0,0,0,0,0,0s0,0,0,0c0,0,0,0,0,0h19.2c0,0,0,0,0,0c0,0,0,0.1,0,0.1L19.9,18.3z"/>
<path class="st0" d="M32.8-10.4c0,0-0.1,0-0.1,0c0,0-0.1,0-0.1,0H32.8z"/>
</svg>
