<svg id="Vrstva_1" data-name="Vrstva 1" xmlns="http://www.w3.org/2000/svg" xmlns:xlink="http://www.w3.org/1999/xlink" viewBox="0 0 167 167"><defs><style>.cls-1{fill:url(#Nepojmenovaný_přechod_3);}.cls-2{fill:none;stroke:#fff;stroke-linecap:round;stroke-miterlimit:10;stroke-width:5px;}</style><linearGradient id="Nepojmenovaný_přechod_3" x1="84" y1="-13" x2="84" y2="181.37" gradientUnits="userSpaceOnUse"><stop offset="0" stop-color="#8fb5cc"/><stop offset="1" stop-color="#6e95af"/></linearGradient></defs><title>IKONY</title><rect class="cls-1" x="3" y="4" width="162" height="162" rx="13.54" ry="13.54"/><polyline class="cls-2" points="64.25 146.75 114 97 54 97 105.13 148.13"/><line class="cls-2" x1="84" y1="88" x2="84" y2="66.21"/><path class="cls-2" d="M28,56.75C28,40.87,53.38,28,84.68,28s56.68,12.87,56.68,28.75"/><path class="cls-2" d="M44.19,58.11a8.1,8.1,0,0,1-16.19,0"/><path class="cls-2" d="M60.39,58.11a8.1,8.1,0,1,1-16.19,0"/><path class="cls-2" d="M76.58,58.11a8.1,8.1,0,0,1-16.19,0"/><path class="cls-2" d="M92.78,58.11a8.1,8.1,0,0,1-16.19,0"/><path class="cls-2" d="M109,58.11a8.1,8.1,0,1,1-16.19,0"/><path class="cls-2" d="M125.16,58.11a8.1,8.1,0,0,1-16.19,0"/><path class="cls-2" d="M141.36,58.11a8.1,8.1,0,1,1-16.19,0"/><polyline class="cls-2" points="144.6 90 137.26 117.5 111.33 117.5 134.67 148.13"/><line class="cls-2" x1="114" y1="148.13" x2="137" y2="118.94"/><polyline class="cls-2" points="22.33 90 29.67 117.5 55.6 117.5 32.27 148.13"/><line class="cls-2" x1="52.93" y1="148.13" x2="29.93" y2="118.94"/></svg>