<svg id="Vrstva_1" data-name="Vrstva 1" xmlns="http://www.w3.org/2000/svg" viewBox="0 0 167 167"><defs><style>.cls-1{fill:none;stroke:#636363;stroke-linecap:round;stroke-miterlimit:10;stroke-width:5px;}</style></defs><title>IKONY</title><polyline class="cls-1" points="64.25 146.75 114 97 54 97 105.13 148.13"/><line class="cls-1" x1="84" y1="88" x2="84" y2="66.21"/><path class="cls-1" d="M28,56.75C28,40.87,53.38,28,84.68,28s56.68,12.87,56.68,28.75"/><path class="cls-1" d="M44.19,58.11a8.1,8.1,0,0,1-16.19,0"/><path class="cls-1" d="M60.39,58.11a8.1,8.1,0,1,1-16.19,0"/><path class="cls-1" d="M76.58,58.11a8.1,8.1,0,0,1-16.19,0"/><path class="cls-1" d="M92.78,58.11a8.1,8.1,0,0,1-16.19,0"/><path class="cls-1" d="M109,58.11a8.1,8.1,0,1,1-16.19,0"/><path class="cls-1" d="M125.16,58.11a8.1,8.1,0,0,1-16.19,0"/><path class="cls-1" d="M141.36,58.11a8.1,8.1,0,1,1-16.19,0"/><polyline class="cls-1" points="144.6 90 137.26 117.5 111.33 117.5 134.67 148.13"/><line class="cls-1" x1="114" y1="148.13" x2="137" y2="118.94"/><polyline class="cls-1" points="22.33 90 29.67 117.5 55.6 117.5 32.27 148.13"/><line class="cls-1" x1="52.93" y1="148.13" x2="29.93" y2="118.94"/></svg>