<svg id="Vrstva_1" data-name="Vrstva 1" xmlns="http://www.w3.org/2000/svg" viewBox="0 0 167 167"><defs><style>.cls-1{fill:none;stroke:#636363;stroke-linecap:round;stroke-miterlimit:10;stroke-width:5px;}</style></defs><title>ikony serie</title><path class="cls-1" d="M82,119c9,0,9,9,18,9s18,0,18-18S100,83,82,83s-36,9-36,27,9,18,18,18S73,119,82,119Z"/><path class="cls-1" d="M64.72,78.42c8.63,0,15.64-9.07,15.64-20.21S73.35,38,64.72,38,49.08,47.07,49.08,58.21s7,20.21,15.64,20.21Zm0,0"/><path class="cls-1" d="M98,78.42c8.62,0,15.64-9.07,15.64-20.21S106.6,38,98,38,82.34,47.07,82.34,58.21s7,20.21,15.64,20.21Zm0,0"/><path class="cls-1" d="M123.67,68c-6.92,0-12.33,6.9-12.33,15.71s5.41,15.71,12.33,15.71S136,92.56,136,83.76,130.58,68,123.67,68Zm0,0"/><path class="cls-1" d="M52.65,83.76C52.65,74.94,47.23,68,40.33,68S28,74.94,28,83.76s5.41,15.71,12.33,15.71,12.33-6.9,12.33-15.71Zm0,0"/></svg>