<svg id="Vrstva_1" data-name="Vrstva 1" xmlns="http://www.w3.org/2000/svg" xmlns:xlink="http://www.w3.org/1999/xlink" viewBox="0 0 167 167"><defs><style>.cls-1{fill:url(#Nepojmenovaný_přechod_3);}.cls-2{fill:none;stroke:#fff;stroke-linecap:round;stroke-miterlimit:10;stroke-width:5px;}</style><linearGradient id="Nepojmenovaný_přechod_3" x1="83.17" y1="-14.5" x2="83.17" y2="179.87" gradientUnits="userSpaceOnUse"><stop offset="0" stop-color="#8fb5cc"/><stop offset="1" stop-color="#6e95af"/></linearGradient></defs><title>IKONY</title><rect class="cls-1" x="2.17" y="2.5" width="162" height="162" rx="13.54" ry="13.54"/><path class="cls-2" d="M83.17,119.5c9,0,9,9,18,9s18,0,18-18-18-27-36-27-36,9-36,27,9,18,18,18S74.17,119.5,83.17,119.5Z"/><path class="cls-2" d="M65.89,78.92c8.63,0,15.64-9.07,15.64-20.21s-7-20.21-15.64-20.21S50.24,47.57,50.24,58.71s7,20.21,15.64,20.21Zm0,0"/><path class="cls-2" d="M99.15,78.92c8.62,0,15.64-9.07,15.64-20.21s-7-20.21-15.64-20.21S83.51,47.57,83.51,58.71s7,20.21,15.64,20.21Zm0,0"/><path class="cls-2" d="M124.84,68.54c-6.92,0-12.33,6.9-12.33,15.71S117.93,100,124.84,100s12.33-6.9,12.33-15.71-5.42-15.71-12.33-15.71Zm0,0"/><path class="cls-2" d="M53.82,84.26c0-8.82-5.42-15.71-12.33-15.71s-12.33,6.9-12.33,15.71S34.58,100,41.49,100s12.33-6.9,12.33-15.71Zm0,0"/></svg>