<svg id="Vrstva_1" data-name="Vrstva 1" xmlns="http://www.w3.org/2000/svg" viewBox="0 0 167 167"><defs><style>.cls-1{fill:none;stroke:#636363;stroke-linecap:round;stroke-miterlimit:10;stroke-width:5px;}</style></defs><title>ikony serie</title><path class="cls-1" d="M100.52,128.69A34.37,34.37,0,1,1,61.25,73.58"/><circle class="cls-1" cx="80.89" cy="40.82" r="9.82"/><path class="cls-1" d="M90.7,70.27s0-9.82-9.82-9.82-9.82,9.82-9.82,9.82V99.73s0,9.82,9.82,9.82h19.64a3.27,3.27,0,0,1,2.93,1.81l8,16a3.27,3.27,0,0,0,2.93,1.81h14.34a3.27,3.27,0,0,0,3.27-3.27v-3.27a3.27,3.27,0,0,0-3.27-3.27H124.2a3.27,3.27,0,0,1-2.93-1.81l-8-16a3.27,3.27,0,0,0-2.93-1.81h-9.82c-9.82,0-9.82-9.82-9.82-9.82V70.27Z"/></svg>