<svg xmlns="http://www.w3.org/2000/svg" viewBox="0 0 162 162"><defs><style>.cls-1{fill:#c00613;}.cls-2{fill:none;stroke:#fff;stroke-linecap:round;stroke-miterlimit:10;stroke-width:5px;}.cls-3{fill:#fff;}</style></defs><title>cvicak_aktiv</title><g id="Vrstva_2" data-name="Vrstva 2"><g id="Vrstva_1-2" data-name="Vrstva 1"><rect class="cls-1" width="162" height="162" rx="13.54"/><polyline class="cls-2" points="69 78 96 132 141 132 114 78 69 78 33 132 69 132 84.33 108.83"/><line class="cls-2" x1="99.5" y1="123" x2="129" y2="123"/><line class="cls-2" x1="94.83" y1="114.13" x2="124.33" y2="114.13"/><line class="cls-2" x1="90.5" y1="105.25" x2="120" y2="105.25"/><line class="cls-2" x1="85.67" y1="96.38" x2="115.17" y2="96.38"/><line class="cls-2" x1="81.33" y1="87.5" x2="110.83" y2="87.5"/><path class="cls-3" d="M87.78,55a52.34,52.34,0,0,1-13.93-.53l-2.34-5.37-17-1.88L36.55,55,29,53a3.19,3.19,0,0,0-1.68,6.16L35,61.21l3.18,7.32A40.21,40.21,0,0,1,27.35,80.18,3.19,3.19,0,0,0,29.14,86a3.08,3.08,0,0,0,1.77-.55A41.58,41.58,0,0,0,39.11,78a33,33,0,0,1-4,6.2A3.2,3.2,0,0,0,40,88.35,46.94,46.94,0,0,0,48.5,71.51l24.57-10.7a57.64,57.64,0,0,0,9.67.8c1.76,0,3.65-.07,5.63-.26A3.19,3.19,0,0,0,87.78,55Z"/><path class="cls-3" d="M72.9,42.76h1.72a10.42,10.42,0,0,0,4.77-1.12c2.55-1.29,4.67-3.86,3.55-7.11-1-3-9-2.19-9.84-2.5-2.54-.92-4-2.64-6.68-3.21-.46-.1-.93-.19-1.4-.25a.49.49,0,0,1-.5-.4c-.28-.88-.56-1.75-.85-2.62a4.43,4.43,0,0,0-3.17-3.1c-.64-.15-3.53-.26-2.85,4.16a13.63,13.63,0,0,1,.15,2.92A93.44,93.44,0,0,1,56.12,40c-.3,1.59-.59,3.18-.9,4.77l16,1.71s1.3-3.76,1.71-3.76Z"/></g></g></svg>