<svg xmlns="http://www.w3.org/2000/svg" viewBox="0 0 120.05 112.1"><defs><style>.cls-1{fill:none;stroke:#fff;stroke-linecap:round;stroke-miterlimit:10;stroke-width:5px;}.cls-2{fill:#fff;}</style></defs><title>cvicak_normal</title><g id="Vrstva_2" data-name="Vrstva 2"><g id="Vrstva_1-2" data-name="Vrstva 1"><polyline class="cls-1" points="44 55.6 71 109.6 116 109.6 89 55.6 44 55.6 8 109.6 44 109.6 59.33 86.43"/><line class="cls-1" x1="74.5" y1="100.6" x2="104" y2="100.6"/><line class="cls-1" x1="69.83" y1="91.72" x2="99.33" y2="91.72"/><line class="cls-1" x1="65.5" y1="82.85" x2="95" y2="82.85"/><line class="cls-1" x1="60.67" y1="73.97" x2="90.17" y2="73.97"/><line class="cls-1" x1="56.33" y1="65.1" x2="85.83" y2="65.1"/><path class="cls-2" d="M62.78,32.59a52.34,52.34,0,0,1-13.93-.53l-2.34-5.37-17-1.89L11.55,32.61,4,30.55a3.19,3.19,0,0,0-1.68,6.16L10,38.8l3.18,7.33A40.07,40.07,0,0,1,2.35,57.77a3.2,3.2,0,0,0,1.79,5.85,3.15,3.15,0,0,0,1.77-.55,41.58,41.58,0,0,0,8.2-7.43,33.37,33.37,0,0,1-4,6.2A3.2,3.2,0,0,0,15,66,46.89,46.89,0,0,0,23.5,49.1L48.07,38.41a57.64,57.64,0,0,0,9.67.8c1.76,0,3.65-.08,5.63-.26a3.19,3.19,0,0,0-.59-6.36Z"/><path class="cls-2" d="M47.9,20.36h1.72a10.42,10.42,0,0,0,4.77-1.12c2.55-1.29,4.67-3.87,3.55-7.11-1-3-9-2.19-9.84-2.5-2.54-.92-4-2.64-6.68-3.21-.46-.1-.93-.19-1.4-.25a.5.5,0,0,1-.5-.4C39.24,4.89,39,4,38.67,3.15A4.43,4.43,0,0,0,35.5.05C34.86-.1,32-.21,32.65,4.21a13.53,13.53,0,0,1,.15,2.91,93.08,93.08,0,0,1-1.68,10.51c-.3,1.6-.59,3.19-.9,4.78l16,1.71s1.3-3.76,1.71-3.76Z"/></g></g></svg>