<svg id="Vrstva_1" data-name="Vrstva 1" xmlns="http://www.w3.org/2000/svg" xmlns:xlink="http://www.w3.org/1999/xlink" viewBox="0 0 167 167"><defs><style>.cls-1{fill:none;}.cls-2{clip-path:url(#clip-path);}.cls-3{fill:#41479b;}.cls-4{fill:#cf0f14;}.cls-5{fill:#fff;}</style><clipPath id="clip-path"><rect class="cls-1" x="24.44" y="52" width="116.61" height="76.21"/></clipPath></defs><title>IKONY</title><g class="cls-2"><path class="cls-3" d="M23.69,129,82.8,90.24,23.69,51.51a2,2,0,0,0-.76,1.57v74.33A2,2,0,0,0,23.69,129Z"/><path class="cls-4" d="M23.69,129a2,2,0,0,0,1.3.5H140.61a2.06,2.06,0,0,0,2.06-2.06V90.24H82.8Z"/><path class="cls-5" d="M23.69,51.51A2,2,0,0,1,25,51H140.61a2.06,2.06,0,0,1,2.06,2.06V90.24H82.8Z"/></g></svg>