<svg id="Vrstva_1" data-name="Vrstva 1" xmlns="http://www.w3.org/2000/svg" viewBox="0 0 167 167"><defs><style>.cls-1{fill:#fff;}.cls-2{fill:#cf0f14;}.cls-3{fill:#00305b;}</style></defs><title>IKONY</title><rect class="cls-1" x="25.44" y="49.14" width="116.61" height="75.86"/><polyline class="cls-2" points="142.04 79.49 89.57 79.49 89.57 49.14 77.91 49.14 77.91 79.49 25.44 79.49 25.44 94.66 77.91 94.66 77.91 125 89.57 125 89.57 94.66 142.04 94.66"/><path class="cls-2" d="M103.17,99.71h8.69L142,119.35V125M64.3,74.43H55.61L25.44,54.8V49.14Zm0,25.29H73L34.13,125H25.44Zm38.87-25.29H94.48l38.87-25.29H142Z"/><path class="cls-3" d="M25.44,99.71v16.8l25.83-16.8m90.77,0v16.8l-25.83-16.8ZM25.44,74.43V57.62l25.83,16.8Zm116.61,0V57.62l-25.83,16.8ZM74,125V101.87L38.47,125Zm19.43,0V101.87L129,125ZM74,49.14V72.27L38.47,49.14Zm19.43,0V72.27L129,49.14Z"/></svg>