<svg id="Vrstva_1" data-name="Vrstva 1" xmlns="http://www.w3.org/2000/svg" viewBox="0 0 167.5 167.5"><defs><style>.cls-1{fill:#3b5998;}</style></defs><title>IKONY</title><path class="cls-1" d="M71.6,145V104.11H58.36v-18H71.6V79c0-12.12,9.1-23,20.3-23h14.58V74H91.89c-1.6,0-3.46,1.94-3.46,4.84v7.19h18v18h-18V145"/><path class="cls-1" d="M109.87,20H58.13A38.18,38.18,0,0,0,20,58.17V109.9A38.18,38.18,0,0,0,58.13,148h51.74A38.18,38.18,0,0,0,148,109.9V58.17A38.18,38.18,0,0,0,109.87,20Zm25.26,89.87a25.26,25.26,0,0,1-25.26,25.26H58.13A25.26,25.26,0,0,1,32.88,109.9V58.17A25.26,25.26,0,0,1,58.13,32.91h51.74a25.26,25.26,0,0,1,25.26,25.26V109.9Z"/></svg>