<svg id="Vrstva_1" data-name="Vrstva 1" xmlns="http://www.w3.org/2000/svg" xmlns:xlink="http://www.w3.org/1999/xlink" viewBox="0 0 168 168"><defs><style>.cls-1{fill:url(#Nepojmenovaný_přechod_3);}.cls-2{fill:none;stroke:#fff;stroke-linecap:round;stroke-miterlimit:10;stroke-width:5px;}.cls-3{fill:#fff;}</style><linearGradient id="Nepojmenovaný_přechod_3" x1="83.5" y1="-1" x2="83.5" y2="173.03" gradientUnits="userSpaceOnUse"><stop offset="0" stop-color="#8fb5cc"/><stop offset="1" stop-color="#6e95af"/></linearGradient></defs><title>AAA</title><rect class="cls-1" x="2.5" y="2.5" width="162" height="162" rx="13.54" ry="13.54"/><path class="cls-2" d="M65.22,45.22c0,6.64-5,12-11.23,12s-11.24-5.39-11.24-12,5-12,11.24-12,11.23,5.39,11.23,12Zm0,0"/><path class="cls-2" d="M59,73.51a28.63,28.63,0,0,0,13,3.11,39.33,39.33,0,0,0,16.39-4,4.37,4.37,0,0,0-3.64-7.93c-11,5-19.51,4.13-27.68-3A13.68,13.68,0,0,0,45.14,59c-11.53,2.53-18.71,8.26-26.82,17.83a4.36,4.36,0,0,0,6.78,5.49c5.27-6.51,8.21-9.62,13.44-12L36.46,90.94c-.13,1.37-.89,20.43-.89,20.43L23.68,130.92a5.55,5.55,0,1,0,9.48,5.77L45.74,116a5.56,5.56,0,0,0,.79-2.4l1.07-12.2,9.94,10.74L52.8,132.74a5.54,5.54,0,0,0,4.24,6.6,5.68,5.68,0,0,0,1.19.13,5.55,5.55,0,0,0,5.42-4.37L69,111.72a5.55,5.55,0,0,0-1.35-5l-11.07-12C56.78,94.25,59,73.51,59,73.51Zm0,0"/><path class="cls-3" d="M126.6,95.38A40.2,40.2,0,0,1,115.92,95l-1.79-4.12-13-1.44-13.75,6-5.76-1.58a2.45,2.45,0,0,0-1.28,4.72l5.88,1.6,2.44,5.61a30.78,30.78,0,0,1-8.32,8.92,2.45,2.45,0,0,0,1.37,4.48,2.39,2.39,0,0,0,1.36-.42A31.71,31.71,0,0,0,89.3,113a25.46,25.46,0,0,1-3.09,4.75A2.45,2.45,0,0,0,90,120.93,35.89,35.89,0,0,0,96.49,108l18.83-8.19a44.44,44.44,0,0,0,7.41.61c1.35,0,2.8-.06,4.32-.2a2.45,2.45,0,0,0-.46-4.87Zm0,0"/><path class="cls-3" d="M115.19,86h1.32a8,8,0,0,0,3.66-.86c2-1,3.57-3,2.72-5.45-.78-2.29-6.88-1.68-7.54-1.92-2-.7-3.08-2-5.12-2.46-.35-.07-.72-.15-1.08-.19a.38.38,0,0,1-.38-.31c-.21-.68-.43-1.34-.65-2a3.38,3.38,0,0,0-2.43-2.37c-.49-.11-2.71-.2-2.19,3.19a10.4,10.4,0,0,1,.11,2.23,70,70,0,0,1-1.28,8.05q-.34,1.84-.69,3.66l12.24,1.32s1-2.89,1.31-2.89Zm0,0"/><path class="cls-3" d="M137.91,74.22c-6.29.8-12.51,2.76-12.23,5s6.79,2.56,13.09,1.76S151.27,78.2,151,76s-6.8-2.57-13.09-1.77Zm0,0"/></svg>