<svg id="Vrstva_1" data-name="Vrstva 1" xmlns="http://www.w3.org/2000/svg" xmlns:xlink="http://www.w3.org/1999/xlink" viewBox="0 0 167 167"><defs><style>.cls-1{fill:url(#Nepojmenovaný_přechod_3);}.cls-2{fill:none;stroke:#fff;stroke-linecap:round;stroke-miterlimit:10;stroke-width:5px;}</style><linearGradient id="Nepojmenovaný_přechod_3" x1="83.5" y1="-14.93" x2="83.5" y2="186.41" gradientUnits="userSpaceOnUse"><stop offset="0" stop-color="#8fb5cc"/><stop offset="1" stop-color="#6e95af"/></linearGradient></defs><title>IKONY</title><rect class="cls-1" x="2.5" y="2.5" width="162" height="162" rx="13.54" ry="13.54"/><path class="cls-2" d="M54.61,58.26,89,92.66a2.73,2.73,0,0,0,3.86,0l34.4-34.4a2.73,2.73,0,0,0-1.93-4.67H56.54A2.73,2.73,0,0,0,54.61,58.26Z"/><line class="cls-2" x1="90.94" y1="135.58" x2="90.94" y2="94.59"/><path class="cls-2" d="M75.67,135.58H106.2a2.73,2.73,0,0,1,1.93.8l2.73,2.73a2.73,2.73,0,0,1-1.93,4.67h-36A2.73,2.73,0,0,1,71,139.12l2.73-2.73A2.73,2.73,0,0,1,75.67,135.58Z"/><polyline class="cls-2" points="99.14 53.6 107.34 29 123.73 29"/><path class="cls-2" d="M58.14,78.19a24.6,24.6,0,1,1,24.6-24.6"/></svg>