<svg id="Vrstva_1" data-name="Vrstva 1" xmlns="http://www.w3.org/2000/svg" viewBox="0 0 167 167"><defs><style>.cls-1{fill:#f8bd01;}</style></defs><title>ikony serie</title><path class="cls-1" d="M138,77,108.59,98.12a3,3,0,0,0-1.11,3.35l11,34.48a3,3,0,0,1-4.63,3.33L84.68,117.85a3,3,0,0,0-3.53,0L51.76,139a3,3,0,0,1-4.6-3.38l11.36-34.36a3,3,0,0,0-1.07-3.36L28.29,76.43A3,3,0,0,1,30.08,71l36.19.19a3,3,0,0,0,2.86-2.06L80.49,34.78a3,3,0,0,1,5.71,0l11,34.48A3,3,0,0,0,100,71.37l36.19.19A3,3,0,0,1,138,77Z"/></svg>