<svg id="Vrstva_1" data-name="Vrstva 1" xmlns="http://www.w3.org/2000/svg" viewBox="0 0 50 50"><defs><style>.cls-1{fill:#c81824;}.cls-2{fill:#fff;}</style></defs><title>ikona_doporucujeme</title><circle class="cls-1" cx="25" cy="25" r="25"/><path class="cls-2" d="M39.2,25a4.18,4.18,0,0,0,1-2.84,3.53,3.53,0,0,0-1.09-2.57,3.49,3.49,0,0,0-2.57-1.09H31.31c.05-.18.1-.33.15-.46a4.08,4.08,0,0,1,.21-.42c.09-.15.15-.26.19-.34.23-.43.41-.79.53-1.07a7.81,7.81,0,0,0,.36-1.14,6,6,0,0,0,.18-1.45c0-.3,0-.55,0-.74s0-.48-.1-.86a4.62,4.62,0,0,0-.22-.95,4.6,4.6,0,0,0-.46-.86,2.79,2.79,0,0,0-.76-.77,4.26,4.26,0,0,0-1.15-.5,5.81,5.81,0,0,0-1.57-.2,1.15,1.15,0,0,0-.86.37,3.38,3.38,0,0,0-.65,1,6.31,6.31,0,0,0-.37,1c-.07.28-.15.67-.24,1.16s-.2.92-.25,1.15a5.83,5.83,0,0,1-.34.93,2.71,2.71,0,0,1-.59.91,28.66,28.66,0,0,0-1.92,2.29c-.63.81-1.27,1.58-1.93,2.31s-1.14,1.1-1.45,1.12a1.32,1.32,0,0,0-.82.39,1.19,1.19,0,0,0-.34.83V34.36a1.16,1.16,0,0,0,.36.85,1.32,1.32,0,0,0,.86.37,13.48,13.48,0,0,1,3,.84c1,.33,1.75.58,2.3.75s1.32.35,2.31.55a14,14,0,0,0,2.75.3H33a4.72,4.72,0,0,0,3.75-1.49,4.59,4.59,0,0,0,.94-3.45,3.75,3.75,0,0,0,1-1.79,3.85,3.85,0,0,0,0-2.23,3.91,3.91,0,0,0,.82-2.61A4.59,4.59,0,0,0,39.2,25Zm0,0"/><path class="cls-2" d="M16.46,20.94H11a1.25,1.25,0,0,0-1.22,1.22v12.2A1.25,1.25,0,0,0,11,35.58h5.49a1.18,1.18,0,0,0,.86-.36,1.2,1.2,0,0,0,.36-.86V22.16a1.23,1.23,0,0,0-1.22-1.22ZM14.27,32.79a1.21,1.21,0,0,1-.86.35,1.22,1.22,0,0,1-.86-2.08,1.15,1.15,0,0,1,.86-.36,1.22,1.22,0,0,1,.86,2.09Zm0,0"/></svg>