<svg id="Vrstva_1" data-name="Vrstva 1" xmlns="http://www.w3.org/2000/svg" viewBox="0 0 167 167"><defs><style>.cls-1{fill:#c00613;}.cls-2{fill:none;stroke:#fff;stroke-linecap:round;stroke-miterlimit:10;stroke-width:5px;}.cls-3{fill:#fff;}</style></defs><title>ikony serie</title><rect class="cls-1" x="2.5" y="2.5" width="162" height="162" rx="13.54" ry="13.54"/><path class="cls-2" d="M121.69,115.15c26-4,24.55-26.14,8.71-26.14"/><path class="cls-2" d="M28.91,80.3h98.43a2.9,2.9,0,0,1,2.9,3.15c-1,11.3-7.63,49.13-52.11,49.13S27,94.75,26,83.45A2.9,2.9,0,0,1,28.91,80.3Z"/><path class="cls-2" d="M69.41,121.62C49.88,116,41.24,101.11,37.42,89"/><path class="cls-2" d="M52,141.29H35.75a2.9,2.9,0,0,1-2.05-.85l-2.9-2.9a2.9,2.9,0,0,1,2.05-5h90.54a2.9,2.9,0,0,1,2.05,5l-2.9,2.9a2.9,2.9,0,0,1-2.05.85H52Z"/><path class="cls-3" d="M74.81,65.87a2,2,0,0,1-1.5-.63c-3.2-3.37-4.91-6.73-4.91-10.1s1.71-6.52,4.91-9.68c2.35-2.1,3.63-4.42,3.63-6.73s-1.28-4.63-3.63-7.15a2,2,0,0,1,0-2.94,2.09,2.09,0,0,1,3,0c3.42,3.16,4.91,6.73,4.91,10.1s-1.71,6.73-4.91,9.68c-2.35,2.1-3.63,4.42-3.63,6.73S74,59.77,76.3,62.3a2,2,0,0,1,0,2.94A2,2,0,0,1,74.81,65.87Z"/><path class="cls-3" d="M98.31,65.87a2,2,0,0,1-1.5-.63c-3.2-3.37-4.91-6.73-4.91-10.1s1.71-6.52,4.91-9.68c2.35-2.31,3.63-4.42,3.63-6.73s-1.28-4.63-3.63-7.15a2,2,0,0,1,0-2.94,2.09,2.09,0,0,1,3,0c3.42,3.16,4.91,6.52,4.91,10.1,0,3.37-1.71,6.73-5.13,9.68C97.24,50.52,96,52.83,96,55.15s1.28,4.63,3.63,7.15a2,2,0,0,1,0,2.94A1.53,1.53,0,0,1,98.31,65.87Z"/><path class="cls-3" d="M53.44,65.87a2,2,0,0,1-1.5-.63C48.74,61.88,47,58.51,47,55.15s1.71-6.52,4.91-9.68c2.35-2.31,3.63-4.42,3.63-6.73s-1.28-4.63-3.63-7.15a2,2,0,0,1,0-2.94,2.09,2.09,0,0,1,3,0c3.42,3.16,4.91,6.52,4.91,10.1,0,3.37-1.71,6.73-5.13,9.68-2.35,2.1-3.63,4.42-3.63,6.73s1.28,4.63,3.63,7.15a2,2,0,0,1,0,2.94A1.53,1.53,0,0,1,53.44,65.87Z"/></svg>