<svg id="Vrstva_1" data-name="Vrstva 1" xmlns="http://www.w3.org/2000/svg" xmlns:xlink="http://www.w3.org/1999/xlink" viewBox="0 0 918.34 305.71"><defs><style>.cls-1{fill:#fff;}.cls-2{fill:url(#Nepojmenovaný_přechod_11);}.cls-3{fill:url(#Nepojmenovaný_přechod_11-2);}.cls-4{fill:#1d1d1b;}.cls-5{mask:url(#mask);}.cls-6{opacity:0.3;}</style><linearGradient id="Nepojmenovaný_přechod_11" x1="34.54" y1="160.55" x2="327.89" y2="160.55" gradientUnits="userSpaceOnUse"><stop offset="0" stop-color="#e30613"/><stop offset="1" stop-color="#8f0613"/></linearGradient><linearGradient id="Nepojmenovaný_přechod_11-2" x1="150.23" y1="288.85" x2="170.12" y2="288.85" xlink:href="#Nepojmenovaný_přechod_11"/><mask id="mask" x="0" y="0" width="310.23" height="305.71" maskUnits="userSpaceOnUse"><g transform="translate(-17.66 -15.03)"><path class="cls-1" d="M230.66,155.3c3.5,0,6.92.13,10.35.39h0c3,.23,6.07.54,9,1h0a137.1,137.1,0,0,1,15.4,3.06h.13c1,0,2-.08,3.06-.16a64.26,64.26,0,0,0,59.19-64A63.53,63.53,0,0,0,323.41,72H257.06A71.7,71.7,0,0,1,213.94,54.8a58.36,58.36,0,0,1-5-4.74,71.64,71.64,0,0,1-18.69-35c.05.73.05,1.43.05,2.15a64.2,64.2,0,0,1-29,53.72l-.31.18c-.47.23-.91.49-1.4.78-1.32.75-2.64,1.53-3.94,2.33A251.4,251.4,0,0,0,73.72,154,249.57,249.57,0,0,0,34.54,288.44c0,5.94.21,11.8.62,17.63H66.3c0-.44,0-.91,0-1.35a54.53,54.53,0,0,1,108.41-8.3.23.23,0,0,0,0,.13,44,44,0,0,1,.47,9.52h30.88c.29-3.71.44-7.44.44-11.23a142,142,0,0,0-3.73-32.44A51,51,0,0,1,221,259.06a51.73,51.73,0,0,1,51.49,47H296.8a154.94,154.94,0,0,0-34.64-89.76A44.68,44.68,0,0,0,266,177.39a44.73,44.73,0,0,1-19,22.76,155.92,155.92,0,0,0-43.56-28.47q4.08-7.74,8.71-15.14A136.48,136.48,0,0,1,230.66,155.3Z"/><path class="cls-1" d="M150.23,306.07H170c.1-1.3.16-2.62.16-3.94v-.23c-.05-11.69-5.4-24.59-11.15-30.26C152.85,282.08,150.36,293.11,150.23,306.07Z"/></g></mask></defs><title>logo</title><path class="cls-2" d="M230.66,155.3c3.5,0,6.92.13,10.35.39h0c3,.23,6.07.54,9,1h0a137.1,137.1,0,0,1,15.4,3.06h.13c1,0,2-.08,3.06-.16a64.26,64.26,0,0,0,59.19-64A63.53,63.53,0,0,0,323.41,72H257.06A71.7,71.7,0,0,1,213.94,54.8a58.36,58.36,0,0,1-5-4.74,71.64,71.64,0,0,1-18.69-35c.05.73.05,1.43.05,2.15a64.2,64.2,0,0,1-29,53.72l-.31.18c-.47.23-.91.49-1.4.78-1.32.75-2.64,1.53-3.94,2.33A251.4,251.4,0,0,0,73.72,154,249.57,249.57,0,0,0,34.54,288.44c0,5.94.21,11.8.62,17.63H66.3c0-.44,0-.91,0-1.35a54.53,54.53,0,0,1,108.41-8.3.23.23,0,0,0,0,.13,44,44,0,0,1,.47,9.52h30.88c.29-3.71.44-7.44.44-11.23a142,142,0,0,0-3.73-32.44A51,51,0,0,1,221,259.06a51.73,51.73,0,0,1,51.49,47H296.8a154.94,154.94,0,0,0-34.64-89.76A44.68,44.68,0,0,0,266,177.39a44.73,44.73,0,0,1-19,22.76,155.92,155.92,0,0,0-43.56-28.47q4.08-7.74,8.71-15.14A136.48,136.48,0,0,1,230.66,155.3Z" transform="translate(-17.66 -15.03)"/><path class="cls-3" d="M150.23,306.07H170c.1-1.3.16-2.62.16-3.94v-.23c-.05-11.69-5.4-24.59-11.15-30.26C152.85,282.08,150.36,293.11,150.23,306.07Z" transform="translate(-17.66 -15.03)"/><path class="cls-4" d="M352.27,157.14h25.35c16,0,23.9,8.88,23.9,25.21v51.56c0,16.32-7.87,25.21-23.9,25.21H352.27Zm16,14.57v72.84h9c5.1,0,8.16-2.62,8.16-9.9v-53c0-7.28-3.06-9.9-8.16-9.9Z" transform="translate(-17.66 -15.03)"/><path class="cls-4" d="M410.43,181.61c0-16.31,8.6-25.63,24.33-25.63s24.33,9.32,24.33,25.63v53c0,16.31-8.59,25.63-24.33,25.63s-24.33-9.32-24.33-25.63Zm16,54.05c0,7.28,3.21,10,8.3,10s8.3-2.76,8.3-10V180.59c0-7.28-3.2-10-8.3-10s-8.3,2.76-8.3,10Z" transform="translate(-17.66 -15.03)"/><path class="cls-4" d="M493.5,202.3h22.44v32.35c0,16.31-8.16,25.63-23.89,25.63s-23.9-9.32-23.9-25.63v-53c0-16.31,8.16-25.63,23.9-25.63s23.89,9.32,23.89,25.63v9.92H500.78V180.59c0-7.28-3.2-10-8.3-10s-8.3,2.76-8.3,10v55.07c0,7.28,3.21,9.9,8.3,9.9s8.3-2.62,8.3-9.9v-18.8H493.5Z" transform="translate(-17.66 -15.03)"/><path class="cls-4" d="M595.38,221.1v13.55c0,16.31-8.16,25.63-23.89,25.63s-23.9-9.32-23.9-25.63v-53c0-16.31,8.16-25.63,23.9-25.63s23.89,9.32,23.89,25.63v9.92H580.22V180.59c0-7.28-3.2-10-8.3-10s-8.3,2.76-8.3,10v55.07c0,7.28,3.21,9.9,8.3,9.9s8.3-2.62,8.3-9.9V221.1Z" transform="translate(-17.66 -15.03)"/><path class="cls-4" d="M605.17,157.14h16v102h-16Z" transform="translate(-17.66 -15.03)"/><path class="cls-4" d="M628.19,157.14h49.53V171.7H661v87.41h-16V171.7H628.19Z" transform="translate(-17.66 -15.03)"/><path class="cls-4" d="M699.75,225.32,679.5,157.14h16.75l12.09,46.47h.29l12.09-46.47H736l-20.25,68.18v33.79h-16Z" transform="translate(-17.66 -15.03)"/><path class="cls-4" d="M765.05,157.14h16v87.41h26.37v14.57H765.05Z" transform="translate(-17.66 -15.03)"/><path class="cls-4" d="M814.47,157.14h16v102h-16Z" transform="translate(-17.66 -15.03)"/><path class="cls-4" d="M858.18,202.45h20.69V217H858.18v42.1h-16v-102h42.39V171.7H858.18Z" transform="translate(-17.66 -15.03)"/><path class="cls-4" d="M908.32,200.11h22v14.57h-22v29.87H936v14.57H892.3v-102H936V171.7H908.32Z" transform="translate(-17.66 -15.03)"/><g class="cls-5"><g class="cls-6"><path class="cls-4" d="M282.13,308c1.3-40.62-40.11-72.42-79.37-45.61,11.3,11.9,65.11,47.55,65.11,47.55Z" transform="translate(-17.66 -15.03)"/><path class="cls-4" d="M170.21,63C145.14,84.17,111,99.73,111,164.11c0,59.34,88.16,77.78,82.54,156.43-78.65,1.73-175.88-9.07-175.88-9.07L44.89,117Z" transform="translate(-17.66 -15.03)"/></g></g></svg>