<svg id="Vrstva_1" data-name="Vrstva 1" xmlns="http://www.w3.org/2000/svg" viewBox="0 0 167 167"><defs><style>.cls-1{fill:#636363;}</style></defs><title>ikony serie</title><path class="cls-1" d="M60.31,87c0-3.26-2.27-5.21-6.26-5.21a13.34,13.34,0,0,0-3.31.32V92.57a12.32,12.32,0,0,0,2.68.21c4.26,0,6.89-2.15,6.89-5.78Zm0,0"/><path class="cls-1" d="M85,81.9a16.61,16.61,0,0,0-3.63.32V105.4a14.41,14.41,0,0,0,2.79.16c7.25,0,12-3.94,12-12.41C96.22,85.79,91.91,81.9,85,81.9Zm0,0"/><path class="cls-1" d="M132.37,68.28h-2.9v-14a2,2,0,0,0,0-.27,2.33,2.33,0,0,0-.56-1.53L105.55,25.81l0,0a2.32,2.32,0,0,0-.47-.39l-.16-.09a2.34,2.34,0,0,0-.47-.2l-.13,0a2.47,2.47,0,0,0-.55-.07H46.43a4.76,4.76,0,0,0-4.75,4.74V68.28h-2.9A6.78,6.78,0,0,0,32,75.06v35.26a6.78,6.78,0,0,0,6.78,6.78h2.9v24.14A4.76,4.76,0,0,0,46.43,146h78.29a4.76,4.76,0,0,0,4.75-4.75V117.11h2.9a6.78,6.78,0,0,0,6.78-6.78V75.06a6.78,6.78,0,0,0-6.78-6.78ZM46.43,29.74h55V54a2.37,2.37,0,0,0,2.37,2.37h21V68.28H46.43Zm58.25,63.14c0,6.78-2.47,11.46-5.89,14.35-3.73,3.1-9.41,4.57-16.34,4.57a69.94,69.94,0,0,1-9.09-.52V76.49a71.15,71.15,0,0,1,10.83-.74c6.73,0,11.09,1.2,14.5,3.78,3.68,2.73,6,7.1,6,13.35ZM42.81,111.44v-35a65.29,65.29,0,0,1,10.83-.74c4.94,0,8.47.94,10.83,2.84a10.36,10.36,0,0,1,3.78,8.2A11.3,11.3,0,0,1,65,95.2c-2.73,2.57-6.78,3.73-11.51,3.73a20.39,20.39,0,0,1-2.73-.16v12.67ZM124.72,140H46.43V117.11h78.29Zm6.88-57.39H118v8.1H130.7v6.52H118v14.25h-8V76H131.6Zm0,0"/></svg>