<svg xmlns="http://www.w3.org/2000/svg" xmlns:xlink="http://www.w3.org/1999/xlink" viewBox="0 0 1036.44 481.03"><defs><style>.cls-1{fill:#1d1d1b;}.cls-2{fill:none;}.cls-2,.cls-7{stroke:#e30613;}.cls-2,.cls-5,.cls-7{stroke-miterlimit:10;}.cls-3{fill:url(#Nepojmenovaný_přechod_11);}.cls-4,.cls-5{fill:#fff;}.cls-5{stroke-width:4px;stroke:url(#Nepojmenovaný_přechod_11-2);}.cls-6{clip-path:url(#clip-path);}.cls-7{fill:#e30613;opacity:0.2;}.cls-8{fill:url(#Nepojmenovaný_přechod_11-3);}.cls-9{fill:url(#Nepojmenovaný_přechod_11-4);}.cls-10{mask:url(#mask);}.cls-11{opacity:0.4;}.cls-12{filter:url(#luminosity-invert);}</style><linearGradient id="Nepojmenovaný_přechod_11" x1="375.05" y1="240.52" x2="856.07" y2="240.52" gradientUnits="userSpaceOnUse"><stop offset="0" stop-color="#e30613"/><stop offset="1" stop-color="#8f0613"/></linearGradient><linearGradient id="Nepojmenovaný_přechod_11-2" x1="405.3" y1="240.52" x2="825.82" y2="240.52" xlink:href="#Nepojmenovaný_přechod_11"/><clipPath id="clip-path"><circle class="cls-2" cx="615.56" cy="240.52" r="170.39"/></clipPath><linearGradient id="Nepojmenovaný_přechod_11-3" x1="510.66" y1="209.81" x2="730.15" y2="209.81" xlink:href="#Nepojmenovaný_přechod_11"/><linearGradient id="Nepojmenovaný_přechod_11-4" x1="597.22" y1="305.39" x2="612.1" y2="305.39" xlink:href="#Nepojmenovaný_přechod_11"/><filter id="luminosity-invert" filterUnits="userSpaceOnUse" color-interpolation-filters="sRGB"><feColorMatrix values="-1 0 0 0 1 0 -1 0 0 1 0 0 -1 0 1 0 0 0 1 0"/></filter><mask id="mask" x="498.03" y="100.93" width="232.12" height="228.74" maskUnits="userSpaceOnUse"><g class="cls-12"><path class="cls-1" d="M657.4,205.88c2.62,0,5.18.1,7.74.29h0c2.27.17,4.54.41,6.77.74h0a101.61,101.61,0,0,1,11.52,2.29h.1c.78,0,1.53-.06,2.29-.12a48.09,48.09,0,0,0,44.29-47.92,47.36,47.36,0,0,0-3.36-17.63H677.15a53.61,53.61,0,0,1-32.26-12.85,42.36,42.36,0,0,1-3.77-3.55,53.67,53.67,0,0,1-14-26.2c0,.54,0,1.06,0,1.61a48,48,0,0,1-21.71,40.19l-.23.14c-.35.17-.68.37-1.05.58-1,.56-2,1.14-2.94,1.75A188,188,0,0,0,540,204.91,184.17,184.17,0,0,0,528,226.68a186.09,186.09,0,0,0-17.38,78.82c0,4.44.15,8.82.46,13.19h23.3c0-.33,0-.68,0-1a40.79,40.79,0,0,1,80.18-10.59,39.58,39.58,0,0,1,.93,4.38.18.18,0,0,0,0,.1c.06,2.39.18,4.75.35,7.12H639c.21-2.77.33-5.57.33-8.4a105.92,105.92,0,0,0-2.8-24.27,38.14,38.14,0,0,1,13.68-2.5,38.71,38.71,0,0,1,38.53,35.17h18.16A116,116,0,0,0,681,251.53a33.4,33.4,0,0,0,2.83-29.12,33.46,33.46,0,0,1-14.18,17A116.53,116.53,0,0,0,637,218.14q3.06-5.79,6.52-11.33A102.17,102.17,0,0,1,657.4,205.88Z"/><path class="cls-1" d="M597.22,318.69H612c.08-1,.12-2,.12-2.95v-.17a40.52,40.52,0,0,0-7.57-23.48A53.64,53.64,0,0,0,597.22,318.69Z"/></g></mask></defs><title>pecet</title><g id="Vrstva_2" data-name="Vrstva 2"><g id="Vrstva_1-2" data-name="Vrstva 1"><polygon class="cls-3" points="615.56 0 631.39 19.13 649.78 2.44 662.74 23.63 683.32 9.73 693.12 32.55 715.47 21.74 721.93 45.71 745.59 38.18 748.58 62.83 773.06 58.74 772.5 83.56 797.32 83.01 793.24 107.5 817.89 110.48 810.36 134.14 834.33 140.59 823.51 162.94 846.33 172.75 832.44 193.33 853.63 206.28 836.95 224.68 856.07 240.51 836.95 256.34 853.63 274.74 832.44 287.69 846.33 308.27 823.51 318.07 834.33 340.43 810.36 346.88 817.89 370.55 793.24 373.53 797.32 398.02 772.5 397.46 773.06 422.29 748.58 418.21 745.59 442.84 721.93 435.31 715.47 459.3 693.12 448.48 683.32 471.29 662.74 457.39 649.78 478.59 631.39 461.9 615.56 481.04 599.72 461.9 581.33 478.59 568.38 457.39 547.79 471.29 537.99 448.48 515.64 459.3 509.18 435.31 485.53 442.84 482.55 418.21 458.05 422.29 458.62 397.46 433.79 398.02 437.88 373.53 413.22 370.55 420.75 346.88 396.78 340.43 407.6 318.07 384.79 308.27 398.68 287.69 377.5 274.74 394.17 256.34 375.05 240.51 394.17 224.68 377.5 206.28 398.68 193.33 384.79 172.75 407.6 162.94 396.78 140.59 420.75 134.14 413.22 110.48 437.88 107.5 433.79 83.01 458.62 83.56 458.05 58.74 482.55 62.83 485.53 38.18 509.19 45.71 515.64 21.74 537.99 32.55 547.79 9.73 568.38 23.63 581.33 2.44 599.72 19.13 615.56 0"/><circle class="cls-4" cx="615.56" cy="240.52" r="191.22"/><circle class="cls-5" cx="615.56" cy="240.52" r="208.26"/><g class="cls-6"><polygon class="cls-7" points="950.7 298.25 950.7 200.34 926.87 200.34 926.87 116.95 867.29 116.95 867.29 298.25 840.66 298.25 840.66 200.34 793.7 200.34 793.7 158.65 763.91 158.65 763.91 170.56 751.29 170.56 751.29 175.77 736.4 175.77 736.4 184.71 727.99 184.71 727.99 298.25 718.52 298.25 718.52 158.65 674.54 158.65 674.54 298.25 668.06 298.25 668.06 223.42 611.46 223.42 611.46 298.25 608.48 298.25 608.48 102.06 551.89 102.06 551.89 298.25 536.29 298.25 536.29 152.32 479.69 118.07 479.69 213.74 464.09 213.74 464.09 192.9 427.12 192.9 427.12 298.25 352.21 298.25 352.21 135.19 293.25 135.19 293.25 298.25 229.55 298.25 229.55 76.75 170.59 76.75 170.59 195.87 151.71 195.87 151.71 167.58 92.75 167.58 92.75 223.42 73.82 223.42 73.82 298.25 57.08 298.25 57.08 158.65 0.5 158.65 0.5 464.38 1035.94 464.38 1035.94 298.25 950.7 298.25"/></g><circle class="cls-2" cx="615.56" cy="240.52" r="170.39"/><path class="cls-8" d="M657.4,205.88c2.62,0,5.18.1,7.74.29h0c2.27.17,4.54.41,6.77.74h0a101.61,101.61,0,0,1,11.52,2.29h.1c.78,0,1.53-.06,2.29-.12a48.09,48.09,0,0,0,44.29-47.92,47.36,47.36,0,0,0-3.36-17.63H677.15a53.61,53.61,0,0,1-32.26-12.85,42.36,42.36,0,0,1-3.77-3.55,53.67,53.67,0,0,1-14-26.2c0,.54,0,1.06,0,1.61a48,48,0,0,1-21.71,40.19l-.23.14c-.35.17-.68.37-1.05.58-1,.56-2,1.14-2.94,1.75A188,188,0,0,0,540,204.91,184.17,184.17,0,0,0,528,226.68a186.09,186.09,0,0,0-17.38,78.82c0,4.44.15,8.82.46,13.19h23.3c0-.33,0-.68,0-1a40.79,40.79,0,0,1,80.18-10.59,39.58,39.58,0,0,1,.93,4.38.18.18,0,0,0,0,.1c.06,2.39.18,4.75.35,7.12H639c.21-2.77.33-5.57.33-8.4a105.92,105.92,0,0,0-2.8-24.27,38.14,38.14,0,0,1,13.68-2.5,38.71,38.71,0,0,1,38.53,35.17h18.16A116,116,0,0,0,681,251.53a33.4,33.4,0,0,0,2.83-29.12,33.46,33.46,0,0,1-14.18,17A116.53,116.53,0,0,0,637,218.14q3.06-5.79,6.52-11.33A102.17,102.17,0,0,1,657.4,205.88Z"/><path class="cls-9" d="M597.22,318.69H612c.08-1,.12-2,.12-2.95v-.17a40.52,40.52,0,0,0-7.57-23.48A53.64,53.64,0,0,0,597.22,318.69Z"/><path class="cls-1" d="M511.45,326.8H520c5.39,0,8,3,8,8.46v17.33c0,5.48-2.64,8.46-8,8.46h-8.51Zm5.38,4.89v24.47h3c1.72,0,2.75-.88,2.75-3.33V335c0-2.45-1-3.33-2.75-3.33Z"/><path class="cls-1" d="M531,335c0-5.48,2.89-8.62,8.18-8.62s8.17,3.14,8.17,8.62v17.81c0,5.48-2.89,8.61-8.17,8.61s-8.18-3.13-8.18-8.61Zm5.39,18.16c0,2.44,1.08,3.37,2.79,3.37s2.79-.93,2.79-3.37V334.67c0-2.44-1.08-3.37-2.79-3.37s-2.79.93-2.79,3.37Z"/><path class="cls-1" d="M558.89,342h7.54v10.86c0,5.48-2.74,8.61-8,8.61s-8-3.13-8-8.61V335c0-5.48,2.74-8.62,8-8.62s8,3.14,8,8.62v3.33h-5.09v-3.68c0-2.44-1.08-3.37-2.79-3.37s-2.79.93-2.79,3.37v18.51c0,2.44,1.08,3.32,2.79,3.32s2.79-.88,2.79-3.32v-6.32h-2.45Z"/><path class="cls-1" d="M593.12,348.28v4.55c0,5.48-2.75,8.61-8,8.61s-8-3.13-8-8.61V335c0-5.48,2.74-8.62,8-8.62s8,3.14,8,8.62v3.33H588v-3.68c0-2.44-1.08-3.37-2.79-3.37s-2.79.93-2.79,3.37v18.51c0,2.44,1.07,3.32,2.79,3.32s2.79-.88,2.79-3.32v-4.9Z"/><path class="cls-1" d="M596.41,326.8h5.38v34.25h-5.38Z"/><path class="cls-1" d="M604.14,326.8h16.64v4.89h-5.63v29.36h-5.38V331.69h-5.63Z"/><path class="cls-1" d="M628.18,349.7l-6.8-22.9H627l4.06,15.61h.1l4.06-15.61h5.14l-6.81,22.9v11.35h-5.38Z"/><path class="cls-1" d="M650.12,326.8h5.38v29.36h8.86v4.89H650.12Z"/><path class="cls-1" d="M666.72,326.8h5.38v34.25h-5.38Z"/><path class="cls-1" d="M681.4,342h7v4.89h-7v14.14H676V326.8h14.24v4.89H681.4Z"/><path class="cls-1" d="M698.25,341.23h7.39v4.9h-7.39v10h9.3v4.89H692.87V326.8h14.68v4.89h-9.3Z"/><g class="cls-10"><g class="cls-11"><path class="cls-1" d="M695.91,320.14c1-30.39-30-54.18-59.39-34.12,8.46,8.9,48.72,35.58,48.72,35.58Z"/><path class="cls-1" d="M612.16,136.82c-18.75,15.84-44.29,27.48-44.29,75.66,0,44.4,66,58.19,61.75,117C570.78,330.81,498,322.73,498,322.73l20.37-145.5Z"/></g></g></g></g></svg>