<?xml version="1.0" encoding="UTF-8" standalone="no"?>
<svg width="90px" height="20px" viewBox="0 0 90 20" version="1.1" xmlns="http://www.w3.org/2000/svg" xmlns:xlink="http://www.w3.org/1999/xlink">
    <!-- Generator: Sketch 44.1 (41455) - http://www.bohemiancoding.com/sketch -->
    <title>ppl</title>
    <desc>Created with Sketch.</desc>
    <defs>
        <polygon id="path-1" points="5.60774522e-22 0.0224613466 5.60774522e-22 3.40796705 3.28713892 3.40796705 3.28713892 0.0224613466 0 0.0224613466"></polygon>
    </defs>
    <g id="Symbols" stroke="none" stroke-width="1" fill="none" fill-rule="evenodd">
        <g id="ppl">
            <g>
                <path d="M50.5193337,5.8557326 C50.6128891,5.8602465 50.678804,5.86616841 50.7447189,5.86620982 C52.1370424,5.86691382 53.5293659,5.87088937 54.921648,5.86389075 C55.2160928,5.86239992 55.5152547,5.84620785 55.8036998,5.79166831 C56.5775898,5.6454013 57.1869201,5.26586078 57.5031711,4.50429501 C57.7131637,3.99873792 57.6275115,3.54349635 57.2402562,3.15915204 C56.9398116,2.86102741 56.5658385,2.73194636 56.1540047,2.72950306 C54.630803,2.72047525 53.10756,2.72254585 51.5843584,2.71691382 C51.4640316,2.71645829 51.4013855,2.74586078 51.3658833,2.87394794 C51.1727728,3.57053836 50.9680766,4.26394005 50.7690077,4.9589154 C50.6862934,5.24772234 50.6077168,5.53777164 50.5193337,5.8557326 M41.9570967,12.7296608 C42.1065535,12.2079117 42.2502174,11.7062887 42.3939227,11.2047072 C43.1865983,8.43797476 43.9792739,5.67124236 44.7719909,2.90450996 C44.9939003,2.12998225 45.2196165,1.35653126 45.4349055,0.580181424 C45.4771109,0.427992506 45.5442258,0.377511339 45.7050201,0.377676987 C49.9730633,0.382315125 54.2411891,0.371092487 58.5091495,0.387408795 C59.760209,0.392212581 60.9808144,0.603910471 62.0843204,1.24952278 C62.8137293,1.67631434 63.3777922,2.2504082 63.6355349,3.08212581 C63.8337348,3.72165056 63.7611167,4.33562414 63.465265,4.9270282 C63.0223564,5.8124157 62.2968785,6.41698876 61.4602182,6.8981128 C60.2975832,7.56670874 59.0367172,7.95473871 57.7085707,8.09479393 C56.9497836,8.17484323 56.1830933,8.20279629 55.4195477,8.2097535 C53.6545753,8.22586275 51.8893132,8.21869848 50.1242166,8.20987774 C49.9112861,8.20884244 49.8171515,8.25899231 49.7563674,8.47802011 C49.3771394,9.84511142 48.9779258,11.2066535 48.5896774,12.5713015 C48.5571544,12.6855571 48.5188385,12.7440308 48.3844846,12.7437823 C46.2814551,12.7397653 44.1784669,12.7412562 42.0754373,12.7410905 C42.0485417,12.7410905 42.0216461,12.7360797 41.9570967,12.7296608" id="Fill-1" fill="#005199"></path>
                <path d="M28.5052838,5.86707119 L28.8357688,5.86707119 C30.2488226,5.86707119 31.6619177,5.87063262 33.0749715,5.86375823 C33.321087,5.86255729 33.5711748,5.83791718 33.8122008,5.78871978 C34.6167518,5.62439716 35.2433367,5.22634549 35.5262371,4.40874936 C35.6211993,4.13427095 35.644164,3.85784618 35.5232579,3.58303648 C35.2640257,2.99357878 34.7689396,2.74307789 34.16954,2.73392585 C32.6328078,2.71044528 31.0955377,2.72270321 29.5585572,2.71694695 C29.4415406,2.71649142 29.3931699,2.754549 29.3608124,2.87017117 C29.1642676,3.57301479 28.9570887,4.27287675 28.755082,4.97418813 C28.6737331,5.25665904 28.5965634,5.54028949 28.5052838,5.86707119 M19.942633,12.7408752 C20.1452604,12.0372861 20.3383295,11.3701396 20.5295779,10.7024962 C21.4949233,7.33222599 22.4609307,3.96216289 23.4215177,0.590526129 C23.4672402,0.430096233 23.5332379,0.375970814 23.7042112,0.376177874 C27.9517723,0.381934135 32.1993333,0.37332045 36.4468531,0.38648945 C37.7202566,0.390423585 38.9600613,0.597607572 40.0830977,1.25361428 C40.7681495,1.65377795 41.3104477,2.19055965 41.5844105,2.95419602 C41.9274743,3.91048077 41.6723798,4.76021258 41.0779455,5.52972944 C40.4186721,6.38306409 39.5292551,6.93081996 38.5541445,7.34510511 C37.252273,7.89820312 35.8875899,8.18001144 34.4745362,8.19226937 C32.3443214,8.21069769 30.2138997,8.21202288 28.0836021,8.20924827 C27.8773335,8.2089998 27.8026051,8.27683258 27.7498897,8.46480142 C27.3704134,9.81781266 26.9778617,11.1671382 26.5969785,12.5197768 C26.5505939,12.6845549 26.4841411,12.7461759 26.3032785,12.7455133 C24.2622743,12.738142 22.2212288,12.7408752 20.1801833,12.7408752 L19.942633,12.7408752" id="Fill-3" fill="#005199"></path>
                <path d="M74.0883262,0.393864918 C73.2082606,3.46497515 72.3312569,6.52552534 71.4442812,9.62073733 L81.7516707,9.62073733 C81.5794974,10.2263871 81.4167583,10.8005638 81.2530262,11.3744092 C81.1415128,11.7651309 81.0236273,12.1541548 80.9189413,12.5466573 C80.881784,12.6858428 80.8288618,12.7453518 80.668895,12.7452276 C75.1668814,12.7400511 69.6649092,12.7407551 64.162937,12.7406308 L63.9659784,12.7406308 C64.0456308,12.4512855 64.1168835,12.1832674 64.1932256,11.9166987 C64.9899563,9.1358448 65.7872248,6.35511516 66.5849071,3.57455117 C66.8736004,2.56828219 67.1643626,1.56255157 67.4527249,0.556199763 C67.4826411,0.451676001 67.5093298,0.3754366 67.6526627,0.375809308 C69.7624368,0.381606981 71.872211,0.380613094 73.9819851,0.381648393 C74.0084669,0.381689805 74.0349074,0.38752889 74.0883262,0.393864918" id="Fill-5" fill="#005199"></path>
                <path d="M1.75823201,12.7407634 C1.87694508,12.321633 1.98411373,11.9384896 2.09405469,11.5561331 C2.28993746,10.8747409 2.49119936,10.1947981 2.68124785,9.51179077 C2.71869481,9.37728476 2.7710378,9.32361487 2.91842572,9.3237391 C7.75164899,9.32759042 12.5848723,9.32688641 17.4180955,9.32742477 C17.4573217,9.32742477 17.4965066,9.33587281 17.5591113,9.34307849 C17.5044925,9.54686669 17.4562459,9.73823132 17.4018754,9.92781522 C17.1513325,10.8012347 16.8956173,11.6732047 16.6507845,12.5481978 C16.6072964,12.7035754 16.5350921,12.7446147 16.3774011,12.7444904 C11.6062032,12.7398523 6.83504671,12.7407219 2.06389023,12.7407634 L1.75823201,12.7407634 Z" id="Fill-7" fill="#005199"></path>
                <path d="M3.02077385,8.33879314 C3.12471503,7.9727115 3.21756694,7.64361073 3.31153605,7.31484125 C3.46860639,6.76542891 3.63130412,6.21754881 3.78018165,5.66594163 C3.81680105,5.53015184 3.8815574,5.499507 4.01127698,5.49958982 C8.82314927,5.50277854 13.6350216,5.50253007 18.4468525,5.50315125 C18.5081745,5.50319266 18.5694964,5.50853481 18.6497695,5.51230329 C18.6367355,5.57421416 18.6291219,5.6259791 18.6148879,5.67579767 C18.3784963,6.50353974 18.1383806,7.33020509 17.9071611,8.15939657 C17.8687624,8.29713272 17.8074405,8.3424788 17.6635283,8.34235457 C12.8585661,8.33846184 8.05360389,8.33895879 3.24864171,8.33879314 L3.02077385,8.33879314" id="Fill-9" fill="#005199"></path>
                <path d="M19.5666655,2.36803057 C19.3704104,3.04718655 19.1801136,3.7151199 18.9796793,4.37998876 C18.9647005,4.42972451 18.8813241,4.47879767 18.8222365,4.49051725 C18.7293846,4.50898698 18.6301605,4.49544528 18.533626,4.49548669 C13.8314464,4.49556951 9.12922541,4.49565234 4.42704581,4.49573516 L4.1226703,4.49573516 C4.32906305,3.77168862 4.52912499,3.0698803 4.72918692,2.36803057 L19.5666655,2.36803057 Z" id="Fill-11" fill="#005199"></path>
                <path d="M5.02380967,1.35329284 C5.11529611,1.03425518 5.1923003,0.749506606 5.28262816,0.469064879 C5.2954553,0.429185171 5.37063886,0.391707356 5.42103709,0.385288503 C5.52282662,0.372367975 5.62742984,0.381644252 5.7308331,0.381644252 L19.8799497,0.381644252 L20.1320236,0.381644252 C20.042606,0.698611319 19.9642778,0.989406034 19.8748188,1.27672215 C19.8640192,1.31142536 19.7953734,1.34124196 19.7495267,1.34882035 C19.6756258,1.36103688 19.5983734,1.35321002 19.5225278,1.35321002 C14.7923767,1.35329284 10.0622257,1.35329284 5.33203332,1.35329284 L5.02380967,1.35329284 Z" id="Fill-13" fill="#005199"></path>
                <path d="M45.0862143,17.0705691 C45.3336539,17.0705691 45.5385156,17.0717287 45.7432947,17.0701136 C45.8530701,17.0692439 45.9635076,17.0703206 46.0723727,17.0587667 C46.3688865,17.0272936 46.5498732,16.8529907 46.6107814,16.5496896 C46.6551799,16.328674 46.5540937,16.180792 46.3272603,16.17135 C46.0326086,16.1590507 45.737088,16.1638545 45.4420639,16.1698178 C45.4021342,16.170646 45.3392399,16.2133003 45.3276541,16.2495772 C45.2447329,16.5092715 45.1724044,16.7723617 45.0862143,17.0705691 M46.6020507,17.340575 C46.8845787,17.5226634 46.8530074,17.7713421 46.7865545,18.027972 C46.7417423,18.2010325 46.686958,18.3723952 46.6563384,18.5479404 C46.6366012,18.6610779 46.6526144,18.7804271 46.6526144,18.9233812 L45.8992064,18.9233812 C45.9395498,18.7133398 45.9685143,18.4988259 46.0229262,18.2909793 C46.1815689,17.6849568 46.1426323,17.6255721 45.5305711,17.6244125 C45.3323298,17.6240398 45.0854281,17.5683822 44.9501225,17.6642923 C44.8249545,17.7529966 44.8162652,18.0097093 44.7617705,18.1940339 C44.6993727,18.4051935 44.65034,18.6206184 44.5787976,18.8284236 C44.5611293,18.8796916 44.4811873,18.9375855 44.4255341,18.9424307 C44.2553056,18.9572976 44.0829254,18.9478142 43.8760775,18.9478142 C43.959909,18.6406204 44.0355478,18.3521447 44.1174759,18.0654912 C44.3347924,17.3050022 44.5603017,16.5468322 44.7695082,15.7841897 C44.8151893,15.6176308 44.8896281,15.5696344 45.0556361,15.5743139 C45.592431,15.5894707 46.1303431,15.5741897 46.6666415,15.5979188 C47.3089914,15.6263274 47.4689995,16.1251343 47.2728685,16.64473 C47.1724858,16.910719 46.9955955,17.1182343 46.7410389,17.2540241 C46.7004058,17.2757239 46.6625865,17.3026417 46.6020507,17.340575" id="Fill-15" fill="#005199"></path>
                <path d="M4.18450537,17.0453741 C4.55632679,17.0453741 4.90654896,17.0691445 5.25172304,17.0375886 C5.51136909,17.0138596 5.64824704,16.8083735 5.70315545,16.5603987 C5.75376057,16.3317219 5.64013698,16.178622 5.40477973,16.1709193 C5.12291377,16.1616845 4.84046853,16.1636308 4.55847844,16.1702982 C4.50969394,16.1714577 4.43136566,16.2101779 4.41878679,16.2486496 C4.33371392,16.5085924 4.26270952,16.7731319 4.18450537,17.0453741 M5.72504434,18.9383143 L4.99675269,18.9383143 C5.02162078,18.7725009 5.03941326,18.6139345 5.0703639,18.4579771 C5.10375583,18.2895547 5.15419543,18.1244867 5.1884563,17.9561885 C5.22342059,17.7844946 5.15282996,17.659886 4.97564998,17.6476281 C4.68099827,17.627212 4.38456731,17.6237334 4.0893363,17.6313946 C4.04667573,17.6325127 3.98779504,17.7293753 3.96863709,17.7918245 C3.87586794,18.0944216 3.78417461,18.3980954 3.71213576,18.7060761 C3.66951657,18.8882059 3.59987764,18.9834534 3.39493312,18.9519803 C3.26264811,18.931647 3.12473571,18.948129 2.96261727,18.948129 C3.09957798,18.4628223 3.22677351,18.0075393 3.3566586,17.5530432 C3.52680434,16.9577878 3.70472913,16.3646859 3.86647517,15.7671528 C3.90698409,15.6176143 3.97447137,15.5732207 4.12285236,15.5757468 C4.60490439,15.5839049 5.08716331,15.5757882 5.56929809,15.5808819 C5.69918318,15.5822485 5.83295779,15.5927257 5.9577534,15.6258967 C6.39217952,15.7413946 6.55690476,16.1603593 6.36710454,16.6437196 C6.25215685,16.9364192 6.0883833,17.1086101 5.69893491,17.3385293 C5.98440074,17.5247588 5.93644381,17.788056 5.86837723,18.054749 C5.83436464,18.1880954 5.78624219,18.318833 5.76422917,18.4539602 C5.74018864,18.6017594 5.73890592,18.7533272 5.72504434,18.9383143" id="Fill-17" fill="#005199"></path>
                <path d="M67.5356875,17.6961463 L66.7590251,17.6961463 C66.8087199,17.5139337 66.8464979,17.3559057 66.8981789,17.2025987 C66.9083992,17.1722852 66.9720383,17.1426756 67.0113473,17.1422615 C67.4307119,17.1379546 67.8501592,17.1395697 68.301964,17.1395697 C68.1926437,17.5259846 68.0904818,17.887718 67.9879061,18.2493272 C67.955921,18.3620091 67.9228187,18.4744011 67.890213,18.5869174 C67.7768376,18.9785502 67.7768376,18.9785502 67.3427839,18.9305951 C67.3492389,18.819901 67.3557352,18.7077989 67.365128,18.5467064 C67.2724416,18.614125 67.2140574,18.6556612 67.1566663,18.6985226 C66.7457428,19.0054265 66.2911243,19.1108614 65.7920246,18.9814904 C65.3739428,18.8731154 65.0933181,18.5425652 65.0507817,18.1110112 C64.9478336,17.0663534 65.7379024,15.6424863 67.0391946,15.5127841 C67.360204,15.4807726 67.6734758,15.4905458 67.9669689,15.634618 C68.3032054,15.7996861 68.4611446,16.0792167 68.455269,16.4525455 C68.4547311,16.4867103 68.4536552,16.5493252 68.4449659,16.5507332 C68.2760615,16.5783964 68.1064536,16.6073433 67.9359769,16.616454 C67.8742411,16.6197255 67.7724516,16.5890807 67.7523419,16.5449769 C67.5425562,16.0843518 67.282786,15.9542355 66.8079751,16.1346673 C66.6216093,16.2054818 66.4394226,16.3264461 66.2972483,16.4669982 C65.943509,16.8166393 65.7931418,17.2647994 65.7703013,17.7554482 C65.7463435,18.2699917 66.0878349,18.4788322 66.5587563,18.4404433 C67.0134989,18.4033382 67.2977234,18.1180927 67.5356875,17.6961463" id="Fill-19" fill="#005199"></path>
                <path d="M28.2552416,17.8727145 C28.4477728,17.2052781 28.6529242,16.5411132 28.8258836,15.8686659 C28.8856746,15.6360964 28.9792299,15.5387369 29.2164492,15.575635 C29.3153009,15.5909988 29.41858,15.5782025 29.5444101,15.5782025 C29.5257073,15.6675281 29.5170593,15.7267058 29.5007978,15.7836886 C29.2209594,16.7641994 28.9359901,17.7432607 28.6633928,18.7257178 C28.6143186,18.9025054 28.5407488,18.9618073 28.3530175,18.9536492 C27.9014195,18.9339785 27.8998058,18.9457395 27.7739344,18.5079738 C27.6064782,17.9255561 27.4411737,17.3424758 27.274214,16.7598925 C27.2594835,16.7084589 27.2396635,16.6584747 27.181569,16.6036038 C27.0913239,16.9147732 27.0007477,17.2258184 26.9109578,17.537112 C26.790631,17.9540475 26.6679043,18.3703619 26.5529152,18.7887468 C26.5207646,18.9058184 26.4714422,18.9626356 26.3397779,18.9509574 C26.190859,18.937747 26.0398712,18.9479343 25.8660014,18.9479343 C25.9680806,18.5796993 26.0608911,18.2353589 26.1591635,17.8925922 C26.3622874,17.1839509 26.5720732,16.477256 26.7701903,15.7672481 C26.8106993,15.6220578 26.8769038,15.5738957 27.0275606,15.5744754 C27.5531421,15.5764632 27.5543835,15.5701686 27.6968474,16.0675261 C27.8523868,16.6104782 28.0052366,17.1542171 28.1597829,17.6974591 C28.1764168,17.7559742 28.1965678,17.8134954 28.2151051,17.8715135 C28.2284701,17.8718862 28.2418765,17.8723003 28.2552416,17.8727145" id="Fill-21" fill="#005199"></path>
                <path d="M7.13643061,17.6251538 C7.13200318,18.2028091 7.37816004,18.474927 7.80993797,18.4506182 C8.12995431,18.432604 8.4104548,18.3062562 8.6266541,18.0621327 C8.94480844,17.702884 9.0960445,17.272324 9.12753305,16.801056 C9.15802853,16.3440337 8.88125205,16.0456192 8.42737835,16.095355 C8.19495893,16.1208233 7.94172645,16.2214958 7.75709845,16.3646569 C7.32250683,16.7016259 7.18161523,17.2003086 7.13643061,17.6251538 M9.84407339,16.6371061 C9.79164765,17.5786896 9.27665885,18.6650079 8.14749853,18.9592398 C7.76537402,19.0587941 7.3870149,19.0742822 7.01502798,18.9141836 C6.63455859,18.7504407 6.42419356,18.4543453 6.41881444,18.0485082 C6.40776656,17.2126494 6.69335652,16.4894725 7.34952657,15.9529393 C7.80009004,15.5844557 8.33212652,15.4318941 8.91530603,15.5239115 C9.5363049,15.6218507 9.85367305,16.0102534 9.84407339,16.6371061" id="Fill-23" fill="#005199"></path>
                <path d="M23.35588,17.6619856 C23.3456596,18.2763733 23.7386251,18.5636066 24.2829095,18.4104238 C24.9612167,18.2194733 25.5201901,17.1941134 25.3186386,16.5104435 C25.2477169,16.2699229 25.0664405,16.117941 24.8114702,16.0925969 C24.4944331,16.061041 24.2123188,16.1478819 23.971748,16.3582546 C23.5565212,16.7213132 23.4093815,17.2061229 23.35588,17.6619856 M26.0660054,16.6513684 C26.0335238,17.7085326 25.4027184,18.6179391 24.4771371,18.9290256 C24.0819372,19.0618338 23.6810685,19.0811731 23.2832205,18.9320073 C22.8963375,18.7869412 22.6868,18.5009917 22.6414499,18.0953617 C22.5233989,17.0389014 23.280324,15.8713329 24.2992537,15.5859217 C24.5688718,15.5103863 24.8746956,15.4976314 25.153334,15.5349022 C25.7798362,15.61872 26.0854116,16.0195462 26.0660054,16.6513684" id="Fill-25" fill="#005199"></path>
                <path d="M64.2632825,16.8934916 C64.2658479,16.3829237 64.0820475,16.1207032 63.7376182,16.0994175 C63.5523695,16.0879878 63.3474664,16.1132077 63.1776103,16.1843948 C62.6260435,16.4156391 62.1716318,17.2964713 62.2729662,17.8864674 C62.3370605,18.2596719 62.5735763,18.47431 62.9407634,18.4436237 C63.1265086,18.4280943 63.3280602,18.3770747 63.4849236,18.2808334 C64.0350422,17.9432846 64.1974503,17.3868736 64.2632825,16.8934916 M62.7681764,19.0701037 C62.165301,19.0316734 61.7322818,18.7755819 61.6093895,18.3101944 C61.5563431,18.1093879 61.5444677,17.8825332 61.5761631,17.6770885 C61.7160616,16.7701254 62.1081582,16.0272779 63.0056025,15.6537835 C63.3549144,15.5083861 63.7197016,15.4598513 64.0976883,15.5277669 C64.6287317,15.62318 64.9655888,15.9742706 64.9847468,16.5125845 C65.0111872,17.2551008 64.6117668,18.450581 63.560521,18.8615117 C63.3078264,18.9603206 63.0328705,19.0021053 62.7681764,19.0701037" id="Fill-27" fill="#005199"></path>
                <path d="M53.7468107,15.5781031 C53.682675,15.7976693 53.6294631,15.9798405 53.5729823,16.1733171 C53.0453319,16.1733171 52.5290603,16.1820136 52.0133267,16.1685961 C51.8331676,16.1639166 51.7516118,16.2209823 51.7212405,16.3948296 C51.6942621,16.5492134 51.6433673,16.6994145 51.5951621,16.8811716 L53.2220567,16.8811716 C53.1645828,17.0822266 53.1261428,17.2525539 53.0625037,17.4128596 C53.0477318,17.4500061 52.9470594,17.4683102 52.8856133,17.4690556 C52.4583042,17.4741079 52.0307882,17.4777935 51.6036032,17.4695111 C51.4605186,17.4667365 51.3941899,17.5110059 51.3627013,17.6537529 C51.314041,17.87452 51.2427469,18.0902763 51.1712874,18.3427235 L53.0355667,18.3427235 C52.9746171,18.5504459 52.9297635,18.719448 52.8724138,18.8840605 C52.8618624,18.9143741 52.8006646,18.9449361 52.7627211,18.9451018 C51.9575908,18.9486218 51.1524604,18.9477521 50.3188208,18.9477521 C50.4150657,18.6092923 50.5042349,18.2931534 50.5948938,17.9774287 C50.8076174,17.236279 51.0243132,16.4962889 51.2313266,15.7535656 C51.2698908,15.6152082 51.3322886,15.5731751 51.4755801,15.5749144 C52.1509909,15.5831554 52.8265671,15.5782688 53.502102,15.5781031 L53.7468107,15.5781031" id="Fill-29" fill="#005199"></path>
                <path d="M15.2825678,16.8880584 C15.2253836,17.0835228 15.1926537,17.2391075 15.1307111,17.3820201 C15.1104359,17.4288156 15.0146462,17.4666247 14.9526622,17.46766 C14.5185257,17.4749485 14.0841409,17.4750314 13.6499217,17.4693579 C13.5184229,17.46766 13.452839,17.5077882 13.4220539,17.6441163 C13.3709936,17.8705983 13.2962238,18.0916553 13.2226126,18.3454691 L15.0852782,18.3454691 C15.0299146,18.5417204 14.9911849,18.706747 14.9332973,18.8647336 C14.9187323,18.9043648 14.8427626,18.9449485 14.7947643,18.9452384 C14.0027507,18.9501664 13.2106958,18.9487584 12.3874006,18.9487584 C12.4136341,18.8291607 12.4305991,18.7247612 12.4596049,18.6238403 C12.7353883,17.6644082 13.0136544,16.7056387 13.2898516,15.7462895 C13.3183196,15.6474392 13.3491461,15.5747198 13.4794863,15.5757551 C14.2170466,15.5813871 14.9546897,15.5785711 15.6922913,15.5797306 C15.7180284,15.579772 15.7438068,15.591533 15.7930878,15.6035839 C15.7439309,15.7734143 15.7077667,15.9402217 15.6431758,16.0951438 C15.6248454,16.1390818 15.5239662,16.169561 15.460534,16.1703479 C14.9780682,16.1763526 14.4954368,16.177098 14.012971,16.1708034 C13.8906581,16.1692297 13.8245363,16.1965202 13.7983855,16.3283345 C13.7626764,16.5083108 13.7036302,16.683649 13.6470667,16.8880584 L15.2825678,16.8880584 Z" id="Fill-31" fill="#005199"></path>
                <path d="M15.4546169,17.9357683 L16.1015597,17.9357683 C16.11298,18.3126585 16.2316517,18.4562751 16.609597,18.4545772 C16.8365132,18.4535419 17.0813873,18.4106805 17.2828561,18.3133625 C17.4029347,18.2553443 17.5058,18.0619505 17.5240063,17.9177127 C17.5463917,17.7405109 17.3527847,17.6899884 17.2078795,17.6474997 C16.9047453,17.5586297 16.5934597,17.4946068 16.2954977,17.391491 C15.9163938,17.2602566 15.8112113,17.0513333 15.8813468,16.6539442 C15.9836328,16.0744668 16.4825256,15.5954962 17.1057589,15.5357387 C17.4074449,15.5068332 17.7272957,15.5182215 18.0205406,15.5884147 C18.4005134,15.6793554 18.5878723,16.0379414 18.5183989,16.4265098 C18.5083855,16.4826644 18.4398637,16.5661923 18.3919068,16.5709132 C18.2158854,16.5883063 18.0370503,16.577829 17.84845,16.577829 C17.8446019,16.3159813 17.7653219,16.1289649 17.4922695,16.0874287 C17.1617018,16.0371546 16.8512023,16.0661016 16.6311963,16.349732 C16.4735053,16.5531061 16.5484406,16.7464171 16.7983214,16.8190536 C17.0953731,16.905439 17.3959418,16.9795664 17.6935314,17.064171 C18.1957344,17.206918 18.3574804,17.5175076 18.1891553,18.0068312 C17.9828039,18.6066833 17.413155,19.0016291 16.7002559,19.0273873 C16.5296136,19.0335577 16.3575645,19.0118992 16.1867153,18.997198 C15.694774,18.9547922 15.2804162,18.6141789 15.4546169,17.9357683" id="Fill-33" fill="#005199"></path>
                <path d="M18.4310461,17.9347371 L19.0537415,17.9347371 C19.0587482,18.1856521 19.1293388,18.3897302 19.4096324,18.4346622 C19.7757851,18.4933015 20.1344483,18.4927218 20.4022872,18.1876813 C20.581743,17.9833548 20.5112351,17.7597716 20.2488995,17.6740075 C20.0140802,17.5972297 19.7706956,17.5471213 19.531904,17.4821045 C18.7589656,17.271649 18.5962265,16.7049679 19.1039742,16.0718205 C19.6031567,15.4493575 20.549551,15.4068689 21.0306927,15.5928085 C21.418486,15.7426784 21.5898317,16.1615188 21.433051,16.5713729 L20.8299687,16.5713729 C20.7979423,16.3810436 20.7808946,16.182349 20.5534819,16.112073 C20.2746365,16.0258947 20.0073356,16.0509903 19.756172,16.19411 C19.6036946,16.2809923 19.507698,16.4183972 19.5218906,16.6014794 C19.5364556,16.7897381 19.7015946,16.8072554 19.8381415,16.845313 C20.0766435,16.9117791 20.3163868,16.9740627 20.5567507,17.0335717 C21.1856942,17.1892806 21.4641671,17.5248416 21.001811,18.3138635 C20.7083178,18.8146997 20.2036735,18.9950487 19.6517343,19.024534 C19.415384,19.0371647 19.1662893,19.0121518 18.9388352,18.9480047 C18.4555004,18.8117594 18.2751757,18.4332128 18.4310461,17.9347371" id="Fill-35" fill="#005199"></path>
                <path d="M70.1958119,17.9272913 C70.2177422,18.304637 70.3323589,18.4388117 70.6743055,18.4565774 C70.8562853,18.4660607 71.0463752,18.4396399 71.222769,18.3921404 C71.3345306,18.3620339 71.4463335,18.2799554 71.5257376,18.1919136 C71.7123104,17.9850609 71.6538848,17.7652877 71.3926251,17.6784054 C71.1776257,17.606887 70.9538957,17.5621621 70.7359171,17.4990503 C70.5843086,17.455195 70.430383,17.4124579 70.287257,17.3476482 C70.0409346,17.2361258 69.9370348,17.0489024 69.9619029,16.7820024 C70.0086185,16.2805451 70.269299,15.9129312 70.7101801,15.6906732 C71.1498198,15.4689951 71.6208653,15.427873 72.0952624,15.5714896 C72.4948484,15.6924954 72.7013653,16.0602335 72.6044583,16.4623021 C72.5932036,16.5090976 72.5203785,16.5698489 72.4720906,16.5737003 C72.3018621,16.5873248 72.1298543,16.579001 71.9375714,16.579001 C71.9441505,16.3441124 71.8929247,16.1509257 71.6403543,16.0977527 C71.3296066,16.0323218 71.0294102,16.0537318 70.783212,16.2724697 C70.554558,16.4756368 70.6254796,16.7422883 70.920752,16.8271414 C71.2180933,16.9126157 71.5199447,16.9826847 71.8159619,17.0723001 C72.3069929,17.2209276 72.4545464,17.5225309 72.2859316,18.008086 C72.0789596,18.6040868 71.5040556,19.0080603 70.794053,19.0261574 C70.5495926,19.0324106 70.2972291,19.0046232 70.0597202,18.9464394 C69.6456106,18.8450215 69.4280458,18.4641558 69.5272285,18.0564551 C69.5394764,18.0062224 69.6066327,17.9369817 69.6530172,17.9331718 C69.8296593,17.9186362 70.0082047,17.9272913 70.1958119,17.9272913" id="Fill-37" fill="#005199"></path>
                <path d="M31.2081433,16.4172749 C31.186751,16.4135064 31.1653173,16.4096965 31.1439249,16.405928 C30.8949957,16.8172729 30.6460665,17.2286178 30.3846826,17.6605031 L31.2081433,17.6605031 L31.2081433,16.4172749 Z M32.0300317,18.9385173 L31.2796029,18.9385173 C31.2796029,18.7689767 31.2731893,18.599519 31.2816718,18.4308067 C31.2881267,18.3023055 31.2550658,18.2422167 31.1116502,18.2461509 C30.7946958,18.2548888 30.4769966,18.2416784 30.1603319,18.2545989 C30.0867207,18.257622 29.9945722,18.3128241 29.9481876,18.3728714 C29.8433361,18.5085784 29.7559461,18.659028 29.6726111,18.8096847 C29.6110409,18.921 29.5292368,18.9592232 29.404524,18.9516034 C29.2405435,18.9415817 29.0754873,18.9491187 28.8643774,18.9491187 C29.0041105,18.7243761 29.1230304,18.5276693 29.2472054,18.3343169 C29.8023307,17.4702151 30.3610973,16.6084325 30.9125399,15.7420116 C30.9880132,15.6234906 31.0713068,15.5644372 31.2123639,15.5761982 C31.3219325,15.5853088 31.4328665,15.5782688 31.5431799,15.5782688 C31.8299284,15.5782688 31.8273216,15.5789314 31.8447003,15.8590832 C31.9051947,16.8365295 31.9681718,17.8138515 32.0296593,18.7912564 C32.0325558,18.8371822 32.0300317,18.8833979 32.0300317,18.9385173 L32.0300317,18.9385173 Z" id="Fill-39" fill="#005199"></path>
                <path d="M42.7734445,16.4026565 C42.7440249,16.3969416 42.7145638,16.3912268 42.6851442,16.3855533 C42.431291,16.8026959 42.1774793,17.2198799 41.8994615,17.6768194 C42.1899754,17.6768194 42.4289325,17.6829897 42.6669379,17.6704833 C42.7047159,17.6684956 42.7676516,17.5828556 42.7687688,17.5347764 C42.7772099,17.1575549 42.7734445,16.780085 42.7734445,16.4026565 M40.4018727,18.9230292 C40.6358645,18.5582313 40.8648082,18.2007634 41.094207,17.8435853 C41.5448532,17.1419012 41.9988924,16.4423291 42.4434975,15.7367937 C42.5204603,15.6146699 42.6063607,15.5591365 42.7456386,15.5775648 C42.7795271,15.5820373 42.8144914,15.5782274 42.8489591,15.5782274 C43.3628721,15.578186 43.3574516,15.5785173 43.3879885,16.0859379 C43.4376419,16.9116922 43.4961088,17.7368667 43.5484104,18.5624553 C43.555817,18.6789057 43.5494448,18.7961844 43.5494448,18.9477935 C43.3349007,18.9477935 43.1174187,18.9544609 42.9012607,18.9405464 C42.8691101,18.9384758 42.821898,18.8408679 42.8182981,18.7851274 C42.8073744,18.6147172 42.8143259,18.4431889 42.8143259,18.2504163 C42.3914028,18.2504163 42.006837,18.2477245 41.6224367,18.2541848 C41.5791555,18.2549302 41.5284676,18.3003591 41.495986,18.3378783 C41.4514634,18.389312 41.4087615,18.4486553 41.3866657,18.5120984 C41.216313,19.0013392 40.8386987,19.0027886 40.4018727,18.9230292" id="Fill-41" fill="#005199"></path>
                <path d="M38.8883907,17.1525151 C39.1415818,17.1525151 39.3395749,17.1540059 39.5375679,17.1521838 C39.9291266,17.1486638 40.1280713,16.9908842 40.2279574,16.6076581 C40.2967688,16.3437397 40.1975447,16.1909296 39.9247819,16.1724599 C39.7059758,16.1576758 39.4855146,16.1637634 39.2659636,16.1682359 C39.2278133,16.1689813 39.1658706,16.2000402 39.1565606,16.2300639 C39.0658603,16.5228878 38.9840149,16.8184449 38.8883907,17.1525151 M37.68264,18.948013 C37.8167456,18.473929 37.9423274,18.0253548 38.0706401,17.5775259 C38.2429789,16.9760588 38.4220623,16.3764551 38.5876151,15.7731658 C38.6277102,15.6271473 38.6923838,15.5725249 38.8447371,15.5756723 C39.3057278,15.585197 39.7684977,15.5578651 40.2278333,15.5875575 C40.8295087,15.6264019 41.0663142,15.9709907 40.938829,16.5585435 C40.7880895,17.2531875 40.2109511,17.7207699 39.5051277,17.7202729 C39.2986108,17.7201073 39.0915974,17.7286796 38.8857425,17.717167 C38.7539127,17.7097957 38.7035972,17.767731 38.6727707,17.883436 C38.5913805,18.1890148 38.4998526,18.4919018 38.4173866,18.7972321 C38.3884634,18.9042406 38.3417065,18.9594841 38.2183591,18.9509119 C38.0492478,18.9391923 37.8786883,18.948013 37.68264,18.948013" id="Fill-43" fill="#005199"></path>
                <path d="M79.385569,17.800637 C79.0640631,18.6744291 78.0428576,19.211128 77.1867911,18.9868409 C76.8036735,18.8864997 76.5206076,18.5589726 76.4745955,18.1628673 C76.3669303,17.2362335 76.9478754,16.1322323 77.7739429,15.7028318 C78.1677773,15.4981325 78.5867281,15.4464918 79.0192922,15.5382193 C79.557494,15.652392 79.8734553,16.1643266 79.7142333,16.6657839 L79.0644355,16.6657839 C78.9254059,16.044646 78.3234408,15.8865352 77.8153208,16.351757 C77.3671572,16.7620252 77.1839774,17.3022855 77.2066111,17.8994459 C77.2225002,18.3187005 77.5725569,18.5215776 78.0178654,18.4088543 C78.27867,18.3428436 78.4803043,18.1904476 78.6173477,17.9648768 C78.6954691,17.8362512 78.7865418,17.7854802 78.9342194,17.798028 C79.0766419,17.8101203 79.2208852,17.800637 79.385569,17.800637" id="Fill-45" fill="#005199"></path>
                <g id="Group-49" transform="translate(0.000000, 15.550105)">
                    <mask id="mask-2" fill="white">
                        <use xlink:href="#path-1"></use>
                    </mask>
                    <g id="Clip-48"></g>
                    <path d="M1.19924613,1.60460126 C1.44192726,1.60460126 1.64645801,1.60513962 1.85094737,1.60447703 C2.24051989,1.60319326 2.44116111,1.44446125 2.53930939,1.06082094 C2.60832765,0.791146322 2.51303445,0.640945178 2.24200949,0.623179452 C2.02316201,0.608809505 1.80265941,0.613406232 1.58319126,0.619783672 C1.5423927,0.620943206 1.47842253,0.6628521 1.46687811,0.699211793 C1.37584683,0.985823901 1.29491174,1.27566614 1.19924613,1.60460126 M-8.27557119e-06,3.37765391 C0.136704162,2.90013272 0.272671798,2.42559318 0.408432544,1.95101223 C0.569268272,1.38859653 0.737758903,0.828168606 0.886388163,0.262564189 C0.936413991,0.072193453 1.02343162,0.0144651942 1.21662483,0.0233273516 C1.71154537,0.0460625123 2.20923823,0.0239485309 2.70258641,0.0620061132 C3.11437884,0.0937690791 3.33860544,0.429868468 3.27707657,0.840633603 C3.15087411,1.68324256 2.5850733,2.16962591 1.73831685,2.17111674 C1.50643534,2.17153086 1.2153835,2.10941294 1.05988551,2.22366851 C0.913449281,2.33129817 0.906621935,2.63269434 0.844141371,2.85047979 C0.678464435,3.42809367 0.67970577,3.42859061 0.0769545372,3.39732459 C0.0573000554,3.3963307 0.0380593523,3.38763419 -8.27557119e-06,3.37765391" id="Fill-47" fill="#005199" mask="url(#mask-2)"></path>
                </g>
                <path d="M49.9190238,16.6756482 C49.7758564,16.0693772 49.2576815,15.8941633 48.7534096,16.2898545 C48.2142561,16.712919 48.0117529,17.3067249 48.0723301,17.9760248 C48.1061771,18.3505545 48.4837501,18.5236979 48.9029078,18.3996691 C49.1601953,18.3235125 49.3384097,18.1509075 49.4969283,17.94186 C49.5484023,17.8739444 49.6517228,17.8203573 49.737706,17.8090933 C49.8976728,17.7881388 50.0623153,17.8030885 50.230599,17.8030885 C50.0271441,18.4541258 49.2499852,19.0175354 48.5481754,19.0287994 C48.3846501,19.0314498 48.2168629,19.0201029 48.0574754,18.9854825 C47.6396832,18.8947904 47.3678721,18.5680915 47.3327009,18.1404303 C47.2464694,17.0908858 47.8749577,15.9936348 48.7750502,15.6343861 C49.1704984,15.4765238 49.577822,15.4414478 49.9883731,15.574256 C50.3997103,15.707354 50.6395778,16.087847 50.6016343,16.5185313 C50.5921587,16.6260367 50.5633184,16.6827711 50.443033,16.6775531 C50.2718114,16.670099 50.1000105,16.6756482 49.9190238,16.6756482" id="Fill-50" fill="#005199"></path>
                <g id="Group-54" transform="translate(83.169491, 0.020623)" fill="#005199">
                    <path d="M2.81186533,0.28536975 C1.44101695,0.266858608 0.289967742,1.39380201 0.268492634,2.77551173 C0.246934771,4.16181818 1.35499239,5.32334056 2.69062821,5.36872806 C4.14861836,5.41829817 5.32627353,4.27218103 5.34849343,2.88633011 C5.37166503,1.44010057 4.26294537,0.304999014 2.81186533,0.28536975 M5.61153247,2.83034116 C5.61231865,4.35537764 4.35248705,5.62850523 2.84380903,5.62734569 C1.25986469,5.62610333 -0.000297920566,4.38101163 0.00346746436,2.82106488 C0.00723284929,1.27950503 1.27161601,0.019173733 2.81277564,0.0207887991 C4.35546626,0.0224452771 5.61074629,1.28256951 5.61153247,2.83034116" id="Fill-52"></path>
                </g>
                <path d="M12.9770723,15.5788651 C12.9945337,15.6175439 13.0005335,15.6241698 12.9994991,15.6294705 C12.8943579,16.1733337 12.8943166,16.1733751 12.3400188,16.1732923 C12.0024169,16.1732094 11.6646494,16.1778062 11.327213,16.1702278 C11.1941004,16.1672461 11.1322819,16.2067945 11.1058828,16.3454003 C11.0701738,16.5328308 11.0041761,16.714505 10.9428955,16.9274867 L12.4195884,16.9274867 C12.3641007,17.1223713 12.3282675,17.2912078 12.2637594,17.4482006 C12.2450152,17.4938779 12.1447981,17.5282499 12.0812003,17.5295336 C11.702386,17.5371534 11.323158,17.539721 10.9444264,17.5304033 C10.8082933,17.5270903 10.7480058,17.5764534 10.7141173,17.7028012 C10.6160932,18.0683859 10.5066074,18.4308233 10.4075074,18.7961181 C10.3781705,18.9042861 10.3330686,18.9593226 10.2093488,18.950916 C10.0398238,18.9394035 9.86897458,18.9480586 9.66990572,18.9480586 C9.8022321,18.4861911 9.92677945,18.0514898 10.0512854,17.61683 C10.2294171,16.9949882 10.4042799,16.3721524 10.5903148,15.7527125 C10.610714,15.6848383 10.6947111,15.5871475 10.7504471,15.5863193 C11.4931382,15.5751795 12.2360362,15.5788651 12.9770723,15.5788651" id="Fill-55" fill="#005199"></path>
                <path d="M75.7788268,15.6148024 C75.6714099,16.1732426 75.6714099,16.1732426 75.130353,16.173491 C74.6165642,16.1736981 74.6159435,16.1735324 74.4728589,16.6728363 C74.27379,17.3672733 74.0725695,18.0611305 73.8800797,18.7573897 C73.8411432,18.8982317 73.7847451,18.9676381 73.6275093,18.9514875 C73.4783835,18.9361651 73.3264854,18.9482159 73.1311405,18.9482159 C73.395545,18.0169026 73.6530808,17.1099395 73.918768,16.1741122 L72.903852,16.1741122 C72.9580983,15.9897048 72.9968694,15.8302274 73.0548811,15.6781627 C73.0717219,15.634059 73.1435953,15.5827496 73.1904764,15.5825425 C74.0375638,15.5789811 74.8846927,15.5826667 75.7317802,15.585814 C75.7432418,15.5858555 75.7546208,15.5994386 75.7788268,15.6148024" id="Fill-57" fill="#005199"></path>
                <path d="M32.3416649,18.947984 C32.6203448,17.9723185 32.8873561,17.0332197 33.1570983,16.0948663 C33.3185961,15.5332374 33.3205822,15.5336515 33.9067409,15.5807783 C33.9258161,15.5823106 33.9440224,15.5940302 33.9871795,15.6101394 C33.7312988,16.508199 33.4757906,17.4050576 33.2115516,18.3323954 L34.8806102,18.3323954 C34.8249156,18.5342372 34.7840342,18.7053514 34.7269742,18.8708336 C34.7145608,18.906862 34.6442185,18.944464 34.6003166,18.9447539 C33.8571703,18.9492678 33.114024,18.947984 32.3416649,18.947984" id="Fill-59" fill="#005199"></path>
                <path d="M54.9392419,15.5795236 C54.6708651,16.5187052 54.4143224,17.4164334 54.1492972,18.3440197 L55.8169903,18.3440197 C55.7647715,18.5309947 55.7273245,18.6911761 55.6723747,18.8451043 C55.6568166,18.8887111 55.5903638,18.9430436 55.5468757,18.9434163 C54.8035639,18.949421 54.0601279,18.9477231 53.2855344,18.9477231 C53.3767312,18.6253311 53.4611421,18.3235622 53.547539,18.0223317 C53.7638625,17.2682615 53.9843651,16.5153922 54.1948956,15.759707 C54.2329632,15.6230889 54.2895681,15.5639527 54.4360457,15.5765419 C54.5915437,15.5898766 54.7490692,15.5795236 54.9392419,15.5795236" id="Fill-61" fill="#005199"></path>
                <path d="M60.2787977,15.5773867 C60.0093451,16.519757 59.7528024,17.4167813 59.4890185,18.3393153 L61.1568358,18.3393153 C61.1036239,18.5340757 61.0633632,18.704196 61.0073376,18.8689328 C60.995007,18.9052096 60.9269404,18.9448409 60.8843212,18.9450893 C60.1413818,18.9496861 59.398401,18.9484023 58.6238903,18.9484023 C58.7141354,18.6303171 58.7971808,18.3353812 58.8815088,18.0408594 C59.0991564,17.2806188 59.3208589,16.5214549 59.5323411,15.7594336 C59.5708639,15.6205794 59.635041,15.5665782 59.7765533,15.5752333 C59.9325478,15.584758 60.0896181,15.5773867 60.2787977,15.5773867" id="Fill-63" fill="#005199"></path>
                <path d="M75.0519751,18.9479882 C75.1192969,18.7012144 75.177681,18.4771343 75.2416512,18.2546693 C75.4811876,17.4219992 75.7265169,16.5909442 75.9593087,15.7564106 C75.9984522,15.6160655 76.0556364,15.5639692 76.1992175,15.5752747 C76.3549638,15.5875326 76.5123652,15.5780493 76.7006758,15.5780493 C76.6083204,15.9082268 76.5256474,16.2102441 76.4393332,16.5111848 C76.2231339,17.2648823 76.0022589,18.0172132 75.791025,18.7722773 C75.7527505,18.9090195 75.6941594,18.9648842 75.5483439,18.9512597 C75.3926804,18.9367241 75.2346583,18.9479882 75.0519751,18.9479882" id="Fill-65" fill="#005199"></path>
                <path d="M21.2131235,18.9481828 C21.3780143,18.3692852 21.5318158,17.8277411 21.686569,17.2864455 C21.8209229,16.8165027 21.9560629,16.3467669 22.0912858,15.8770726 C22.1883169,15.5401449 22.1349808,15.582468 22.492651,15.5785338 C22.6072263,15.5772915 22.7218429,15.5783682 22.863438,15.5783682 C22.7592899,15.9564593 22.6677207,16.3002613 22.5697379,16.6422412 C22.3687657,17.3438838 22.1576972,18.0427105 21.9661591,18.7468793 C21.9199815,18.9166269 21.8441358,18.9672737 21.6799071,18.9510816 C21.537319,18.9370844 21.3922897,18.9481828 21.2131235,18.9481828" id="Fill-67" fill="#005199"></path>
                <path d="M68.2493231,18.947632 C68.2763428,18.839961 68.296618,18.7480678 68.3224792,18.6577898 C68.5947868,17.7061432 68.873715,16.7563187 69.1359264,15.8018975 C69.1865316,15.6177385 69.267177,15.5552065 69.4489085,15.5750428 C69.5832624,15.5897026 69.7205128,15.5779002 69.8698041,15.5779002 C69.8644664,15.6413433 69.8674869,15.6822583 69.8569356,15.7192392 C69.5662148,16.7374348 69.2714389,17.7544295 68.9854765,18.7739089 C68.9464572,18.9129288 68.8869559,18.9638655 68.7429609,18.9508207 C68.5867181,18.9366993 68.428241,18.947632 68.2493231,18.947632" id="Fill-69" fill="#005199"></path>
                <path d="M85.2170289,2.59225143 C85.6785575,2.59225143 86.117618,2.61755413 86.5520855,2.58392763 C86.8771085,2.55874916 87.0724948,2.3301552 87.1490024,2.01103471 C87.2158277,1.73245652 87.0976111,1.56581483 86.8084213,1.55699408 C86.4308897,1.54552297 86.0529444,1.54606133 85.6752473,1.54925005 C85.6246008,1.54970558 85.5422175,1.58461585 85.529018,1.62250779 C85.4193253,1.93831532 85.3224597,2.25855393 85.2170289,2.59225143 M86.963009,4.28016111 L86.4359378,4.28016111 C86.499908,4.02170913 86.5515476,3.78197535 86.6191176,3.54679688 C86.7420512,3.11905285 86.6350894,2.96765076 86.1893672,2.96392368 C85.8863158,2.96135614 85.5827264,2.97411102 85.2803371,2.95990672 C85.1229357,2.9525354 85.0636412,3.01461191 85.024084,3.15495701 C84.9438109,3.43966417 84.8469868,3.71965036 84.7576106,4.00178998 C84.6547452,4.32641826 84.6067056,4.35143108 84.2327325,4.25523112 C84.3265361,3.96149615 84.419057,3.66834096 84.5138123,3.37588977 C84.7300529,2.70837054 84.9452592,2.0404786 85.1675824,1.37498856 C85.1895954,1.30918497 85.2581585,1.20900947 85.3049983,1.20905088 C85.9170181,1.20967206 86.5309828,1.1997746 87.1403544,1.24632163 C87.5623258,1.27854013 87.7187341,1.550451 87.6240202,1.96067778 C87.5483401,2.28853619 87.349023,2.5245843 87.0610745,2.69048058 C87.0257378,2.71081384 86.9915597,2.73313488 86.9575057,2.75558016 C86.95283,2.75868606 86.9520852,2.76775528 86.9437683,2.78817137 C87.1978697,2.91191027 87.1638985,3.13164208 87.1110589,3.35162236 C87.0676949,3.53217847 87.0011593,3.70776514 86.9671467,3.88972924 C86.9450923,4.00787754 86.963009,4.13356281 86.963009,4.28016111" id="Fill-87" fill="#005199"></path>
            </g>
        </g>
    </g>
</svg>