<svg id="Vrstva_1" data-name="Vrstva 1" xmlns="http://www.w3.org/2000/svg" viewBox="0 0 167 167"><defs><style>.cls-1{fill:#636363;}</style></defs><title>ikony serie</title><path class="cls-1" d="M122.91,97.55l-3.74-35.61a16.2,16.2,0,0,0-16.11-14.51H93.73V42.85h3.51a2.53,2.53,0,0,1,2.08,1.1A3.42,3.42,0,0,0,105,40.06,9.38,9.38,0,0,0,97.24,36H70.37a9.38,9.38,0,0,0-7.72,4.06,3.42,3.42,0,0,0,5.64,3.89,2.54,2.54,0,0,1,2.08-1.1h3.51v4.58H64.55A16.2,16.2,0,0,0,48.44,61.95L44.7,97.62a16.22,16.22,0,0,0,.46,5.87l3.74,14A16.19,16.19,0,0,0,57.68,128v5a2.21,2.21,0,1,0,4.42,0v-4h40.66v4a2.21,2.21,0,1,0,4.42,0v-4h.13a16.21,16.21,0,0,0,11.41-11.47l3.74-14.07A16.18,16.18,0,0,0,122.91,97.55ZM80.72,42.85h6.16v4.58H80.72Zm-7.4,72.36a1.51,1.51,0,0,1-1.5,1.5H61.06a1.51,1.51,0,0,1-1.48-1.21l-1.2-6.07a1.5,1.5,0,0,1,1.48-1.8h12a1.5,1.5,0,0,1,1.5,1.5Zm35.9-5.78L108,115.5a1.51,1.51,0,0,1-1.48,1.21H95.79a1.51,1.51,0,0,1-1.51-1.5v-6.07a1.51,1.51,0,0,1,1.51-1.5h12a1.5,1.5,0,0,1,1.48,1.8ZM55.32,92.65l2.22-21.18a12,12,0,0,1,12-10.78H98.1a12,12,0,0,1,12,10.77l2.22,21.18Z"/></svg>