<svg id="Vrstva_1" data-name="Vrstva 1" xmlns="http://www.w3.org/2000/svg" viewBox="0 0 167 167"><defs><style>.cls-1{fill:none;stroke:#636363;stroke-linecap:round;stroke-miterlimit:10;stroke-width:5px;}</style></defs><title>ikony serie</title><path class="cls-1" d="M54.61,58.26,89,92.66a2.73,2.73,0,0,0,3.86,0l34.4-34.4a2.73,2.73,0,0,0-1.93-4.67H56.54A2.73,2.73,0,0,0,54.61,58.26Z"/><line class="cls-1" x1="90.94" y1="135.58" x2="90.94" y2="94.59"/><path class="cls-1" d="M75.67,135.58H106.2a2.73,2.73,0,0,1,1.93.8l2.73,2.73a2.73,2.73,0,0,1-1.93,4.67h-36A2.73,2.73,0,0,1,71,139.12l2.73-2.73A2.73,2.73,0,0,1,75.67,135.58Z"/><polyline class="cls-1" points="99.14 53.6 107.34 29 123.73 29"/><path class="cls-1" d="M58.14,78.19a24.6,24.6,0,1,1,24.6-24.6"/></svg>