<svg id="Vrstva_1" data-name="Vrstva 1" xmlns="http://www.w3.org/2000/svg" viewBox="0 0 167 167"><defs><style>.cls-1{fill:none;stroke:#636363;stroke-linecap:round;stroke-miterlimit:10;stroke-width:5px;}</style></defs><title>ikony serie</title><path class="cls-1" d="M136.35,66.16a74,74,0,0,0-105.12,0,4,4,0,0,0,0,5.8l5.8,5.8a4,4,0,0,0,5.8,0,57.94,57.94,0,0,1,81.94,0,4,4,0,0,0,5.8,0l5.78-5.8a3.76,3.76,0,0,0,1.25-2.89,3.26,3.26,0,0,0-1.25-2.91Zm0,0"/><path class="cls-1" d="M83.79,77.33a40.28,40.28,0,0,0-29,12,4,4,0,0,0,0,5.8l5.8,5.8a4,4,0,0,0,5.78,0,24.36,24.36,0,0,1,17.38-7,26.3,26.3,0,0,1,17.4,7,4,4,0,0,0,5.78,0l5.8-5.8a4,4,0,0,0,0-5.8,40.33,40.33,0,0,0-29-12Zm0,0"/><path class="cls-1" d="M92.08,118.71a8.27,8.27,0,1,1-8.29-8.26,8.27,8.27,0,0,1,8.29,8.26Zm0,0"/></svg>