<svg id="Vrstva_1" data-name="Vrstva 1" xmlns="http://www.w3.org/2000/svg" xmlns:xlink="http://www.w3.org/1999/xlink" viewBox="0 0 167 167"><defs><style>.cls-1{fill:url(#Nepojmenovaný_přechod_3);}.cls-2{fill:none;stroke:#fff;stroke-linecap:round;stroke-miterlimit:10;stroke-width:5px;}</style><linearGradient id="Nepojmenovaný_přechod_3" x1="84" y1="-14" x2="84" y2="180.37" gradientUnits="userSpaceOnUse"><stop offset="0" stop-color="#8fb5cc"/><stop offset="1" stop-color="#6e95af"/></linearGradient></defs><title>IKONY</title><rect class="cls-1" x="3" y="3" width="162" height="162" rx="13.54" ry="13.54"/><path class="cls-2" d="M136.55,64.54a74,74,0,0,0-105.12,0,4,4,0,0,0,0,5.8l5.8,5.8a4,4,0,0,0,5.8,0,57.94,57.94,0,0,1,81.94,0,4,4,0,0,0,5.8,0l5.78-5.8a3.76,3.76,0,0,0,1.25-2.89,3.26,3.26,0,0,0-1.25-2.91Zm0,0"/><path class="cls-2" d="M84,75.71a40.28,40.28,0,0,0-29,12,4,4,0,0,0,0,5.8l5.8,5.8a4,4,0,0,0,5.78,0,24.36,24.36,0,0,1,17.38-7,26.3,26.3,0,0,1,17.4,7,4,4,0,0,0,5.78,0l5.8-5.8a4,4,0,0,0,0-5.8,40.33,40.33,0,0,0-29-12Zm0,0"/><path class="cls-2" d="M92.27,117.1A8.27,8.27,0,1,1,84,108.84a8.27,8.27,0,0,1,8.29,8.26Zm0,0"/></svg>