<svg id="Vrstva_1" data-name="Vrstva 1" xmlns="http://www.w3.org/2000/svg" xmlns:xlink="http://www.w3.org/1999/xlink" viewBox="0 0 167 167"><defs><style>.cls-1{fill:url(#Nepojmenovaný_přechod_3);}.cls-2{fill:none;stroke:#fff;stroke-linecap:round;stroke-miterlimit:10;stroke-width:5px;}</style><linearGradient id="Nepojmenovaný_přechod_3" x1="83.58" y1="-14.83" x2="83.58" y2="179.55" gradientUnits="userSpaceOnUse"><stop offset="0" stop-color="#8fb5cc"/><stop offset="1" stop-color="#6e95af"/></linearGradient></defs><title>IKONY</title><rect class="cls-1" x="2.58" y="2.17" width="162" height="162" rx="13.54" ry="13.54"/><path class="cls-2" d="M130,83.61c6.62,0,8.32,11.61,8.32,11.61v12a6,6,0,0,1-6,6H122.8a6,6,0,0,1-4.25-1.76L104.05,97a6,6,0,0,0-4.25-1.76H67.36A6,6,0,0,0,63.11,97l-14.5,14.5a6,6,0,0,1-4.25,1.76H34.84a6,6,0,0,1-6-6v-12s1.69-11.61,8.32-11.61"/><path class="cls-2" d="M37.15,82.74c-6.62,0-8.32-11.61-8.32-11.61v-12a6,6,0,0,1,6-6h9.52a6,6,0,0,1,4.25,1.76l14.5,14.5a6,6,0,0,0,4.25,1.76H99.81a6,6,0,0,0,4.25-1.76l14.5-14.5a6,6,0,0,1,4.25-1.76h9.52a6,6,0,0,1,6,6v12S136.64,82.74,130,82.74"/></svg>