<svg id="Vrstva_1" data-name="Vrstva 1" xmlns="http://www.w3.org/2000/svg" viewBox="0 0 167 167"><defs><style>.cls-1{fill:none;stroke:#636363;stroke-linecap:round;stroke-miterlimit:10;stroke-width:5px;}</style></defs><title>ikony serie</title><path class="cls-1" d="M129.68,91.46c6.62,0,8.32,11.61,8.32,11.61v12a6,6,0,0,1-6,6h-9.52a6,6,0,0,1-4.25-1.76l-14.5-14.5a6,6,0,0,0-4.25-1.76H67a6,6,0,0,0-4.25,1.76l-14.5,14.5A6,6,0,0,1,44,121.08H34.51a6,6,0,0,1-6-6v-12s1.69-11.61,8.32-11.61"/><path class="cls-1" d="M36.82,90.59C30.19,90.59,28.5,79,28.5,79V67a6,6,0,0,1,6-6H44a6,6,0,0,1,4.25,1.76l14.5,14.5A6,6,0,0,0,67,79H99.47a6,6,0,0,0,4.25-1.76l14.5-14.5A6,6,0,0,1,122.47,61H132a6,6,0,0,1,6,6V79s-1.69,11.61-8.32,11.61"/></svg>