<svg id="Vrstva_1" data-name="Vrstva 1" xmlns="http://www.w3.org/2000/svg" xmlns:xlink="http://www.w3.org/1999/xlink" viewBox="0 0 167 167"><defs><style>.cls-1{fill:url(#Nepojmenovaný_přechod_3);}.cls-2{fill:none;stroke:#fff;stroke-linecap:round;stroke-miterlimit:10;stroke-width:5px;}</style><linearGradient id="Nepojmenovaný_přechod_3" x1="83.77" y1="-14.83" x2="83.77" y2="179.54" gradientUnits="userSpaceOnUse"><stop offset="0" stop-color="#8fb5cc"/><stop offset="1" stop-color="#6e95af"/></linearGradient></defs><title>IKONY</title><rect class="cls-1" x="2.77" y="2.17" width="162" height="162" rx="13.54" ry="13.54"/><path class="cls-2" d="M97.48,126.85A34.37,34.37,0,1,1,58.21,71.75"/><circle class="cls-2" cx="77.85" cy="38.98" r="9.82"/><path class="cls-2" d="M87.67,68.44s0-9.82-9.82-9.82S68,68.44,68,68.44V97.89s0,9.82,9.82,9.82H97.48a3.27,3.27,0,0,1,2.93,1.81l8,16a3.27,3.27,0,0,0,2.93,1.81h14.34a3.27,3.27,0,0,0,3.27-3.27V120.8a3.27,3.27,0,0,0-3.27-3.27h-4.52a3.27,3.27,0,0,1-2.93-1.81l-8-16a3.27,3.27,0,0,0-2.93-1.81H97.48c-9.82,0-9.82-9.82-9.82-9.82V68.44Z"/></svg>