<svg id="Vrstva_1" data-name="Vrstva 1" xmlns="http://www.w3.org/2000/svg" viewBox="0 0 167 167"><defs><style>.cls-1{fill:#636363;}</style></defs><title>ikony serie</title><path class="cls-1" d="M41.62,108.95a14.93,14.93,0,0,0,5.22,11.48v9.36A4.93,4.93,0,0,0,52.05,135h5.18a4.93,4.93,0,0,0,5.22-5.22V124.6h41.71v5.18a4.92,4.92,0,0,0,5.18,5.22h5.22a4.93,4.93,0,0,0,5.22-5.22v-9.36A15,15,0,0,0,125,108.95V56.84C125,38.59,106.25,36,83.29,36S41.62,38.59,41.62,56.84Zm18.24,5.22a7.81,7.81,0,1,1,7.81-7.81,8,8,0,0,1-7.81,7.81Zm46.89,0a7.81,7.81,0,1,1,7.81-7.81,8,8,0,0,1-7.81,7.81Zm7.81-31.27H52.05V56.84h62.51Zm0,0"/></svg>