<svg xmlns="http://www.w3.org/2000/svg" xmlns:xlink="http://www.w3.org/1999/xlink" viewBox="0 0 1067.67 256.05"><defs><style>.cls-1{fill:#fff;}.cls-2{fill:url(#Nepojmenovaný_přechod_11);}.cls-3{fill:url(#Nepojmenovaný_přechod_11-2);}.cls-4{fill:#1d1d1b;}.cls-5{mask:url(#mask);}.cls-6{opacity:0.3;}.cls-7{fill:#c70613;}</style><linearGradient id="Nepojmenovaný_přechod_11" y1="128.02" x2="258.08" y2="128.02" gradientUnits="userSpaceOnUse"><stop offset="0" stop-color="#e30613"/><stop offset="1" stop-color="#8f0613"/></linearGradient><linearGradient id="Nepojmenovaný_přechod_11-2" x1="101.78" y1="240.9" x2="119.28" y2="240.9" xlink:href="#Nepojmenovaný_přechod_11"/><mask id="mask" x="0" y="0" width="258.08" height="256.05" maskUnits="userSpaceOnUse"><path class="cls-1" d="M172.54,123.4c3.08,0,6.09.12,9.1.35h0c2.67.2,5.34.48,8,.86h0a121.6,121.6,0,0,1,13.55,2.69h.11c.91,0,1.8-.06,2.69-.13a56.54,56.54,0,0,0,52.08-56.34,55.79,55.79,0,0,0-3.95-20.74H195.76A63.05,63.05,0,0,1,157.83,35a50.22,50.22,0,0,1-4.43-4.17A63.08,63.08,0,0,1,137,0c.05.64.05,1.25.05,1.89a56.48,56.48,0,0,1-25.53,47.27c-.09,0-.18.11-.27.16-.41.2-.8.43-1.23.68-1.16.66-2.33,1.35-3.47,2a221.17,221.17,0,0,0-72,70.21,215,215,0,0,0-14,25.6A218.86,218.86,0,0,0,0,240.54c0,5.22.18,10.37.55,15.51H27.94c0-.39,0-.8,0-1.19a48,48,0,0,1,48-48,48.16,48.16,0,0,1,35.7,15.92,48.15,48.15,0,0,1,11.72,24.75.25.25,0,0,0,0,.12,38.53,38.53,0,0,1,.41,8.37h27.17c.25-3.27.39-6.55.39-9.88A124.68,124.68,0,0,0,148,217.63a45,45,0,0,1,16.09-2.94,45.51,45.51,0,0,1,45.3,41.36h21.35a136.29,136.29,0,0,0-30.48-79,39.25,39.25,0,0,0,3.33-34.24,39.34,39.34,0,0,1-16.67,20,137,137,0,0,0-38.32-25.05q3.58-6.81,7.66-13.32A120.14,120.14,0,0,1,172.54,123.4Z"/><path class="cls-1" d="M101.78,256.05h17.36c.09-1.14.14-2.31.14-3.47v-.21c0-10.28-4.75-21.63-9.81-26.62C104.08,234.94,101.89,244.64,101.78,256.05Z"/></mask></defs><title>Datový zdroj 2</title><g id="Vrstva_2" data-name="Vrstva 2"><g id="Vrstva_1-2" data-name="Vrstva 1"><path class="cls-2" d="M156.25,124.5q-4.06,6.5-7.66,13.32a137,137,0,0,1,38.32,25.05,39.34,39.34,0,0,0,16.67-20,39.25,39.25,0,0,1-3.33,34.24,136.29,136.29,0,0,1,30.48,79H209.38a45.51,45.51,0,0,0-45.3-41.36A45,45,0,0,0,148,217.63a124.68,124.68,0,0,1,3.29,28.54c0,3.33-.14,6.61-.39,9.88H123.72a38.53,38.53,0,0,0-.41-8.37.25.25,0,0,1,0-.12,47.89,47.89,0,0,0-28.35-36.7,47.82,47.82,0,0,0-39,.36,47.91,47.91,0,0,0-28.06,43.64c0,.39,0,.8,0,1.19H.55C.18,250.91,0,245.76,0,240.54a218.86,218.86,0,0,1,20.44-92.68,215,215,0,0,1,14-25.6,221.17,221.17,0,0,1,72-70.21L108.29,51c.56-.34,1.12-.66,1.68-1s.82-.48,1.23-.68c.09,0,.18-.12.27-.16A56.48,56.48,0,0,0,137,1.89c0-.64,0-1.25-.05-1.89A63.08,63.08,0,0,0,153.4,30.82,50.22,50.22,0,0,0,157.83,35a63.05,63.05,0,0,0,37.93,15.1h58.37a55.79,55.79,0,0,1,3.95,20.74A56.54,56.54,0,0,1,206,127.17c-.89.07-1.78.13-2.69.13h-.11a121.6,121.6,0,0,0-13.55-2.69h0c-2.62-.38-5.29-.66-8-.86h0c-3-.23-6-.35-9.1-.35A120.14,120.14,0,0,0,156.25,124.5Z"/><path class="cls-3" d="M119.28,252.37v.21c0,1.16,0,2.33-.14,3.47H101.78c.11-11.41,2.3-21.11,7.69-30.3C114.53,230.74,119.23,242.09,119.28,252.37Z"/><path class="cls-4" d="M301.83,125h-22.3v89.72h22.3c14.1,0,21-7.82,21-22.18V147.2C322.85,132.84,315.93,125,301.83,125Zm6.92,68.19c0,6.41-2.69,8.71-7.18,8.71h-7.94V137.84h7.94c4.49,0,7.18,2.3,7.18,8.71Z"/><path class="cls-4" d="M352.1,124c-13.84,0-21.41,8.2-21.41,22.55v46.66c0,14.35,7.57,22.55,21.41,22.55s21.4-8.2,21.4-22.55V146.55C373.5,132.2,365.94,124,352.1,124Zm7.3,70.11c0,6.4-2.82,8.83-7.3,8.83s-7.31-2.43-7.31-8.83V145.65c0-6.4,2.82-8.84,7.31-8.84s7.3,2.44,7.3,8.84Z"/><path class="cls-4" d="M423.51,155.27v-8.72c0-14.35-7.18-22.55-21-22.55s-21,8.2-21,22.55v46.66c0,14.35,7.18,22.55,21,22.55s21-8.2,21-22.55V164.75H403.77v12.81h6.41v16.55c0,6.4-2.82,8.71-7.31,8.71s-7.3-2.31-7.3-8.71V145.65c0-6.4,2.82-8.84,7.3-8.84s7.31,2.44,7.31,8.84v9.62Z"/><path class="cls-4" d="M493.4,155.27v-8.72c0-14.35-7.18-22.55-21-22.55s-21,8.2-21,22.55v46.66c0,14.35,7.18,22.55,21,22.55s21-8.2,21-22.55V181.29H480.07v12.82c0,6.4-2.82,8.71-7.31,8.71s-7.3-2.31-7.3-8.71V145.65c0-6.4,2.82-8.84,7.3-8.84s7.31,2.44,7.31,8.84v9.62Z"/><path class="cls-4" d="M502,125v89.72h14.1V125Z"/><path class="cls-4" d="M522.27,125v12.82H537v76.9h14.1v-76.9h14.74V125Z"/><path class="cls-4" d="M603.68,125,593,165.91h-.25L582.15,125H567.41l17.81,60v29.73h14.1V185l17.82-60Z"/><path class="cls-4" d="M656.77,201.92V125h-14.1v89.72H680V201.92Z"/><path class="cls-4" d="M686.15,125v89.72h14.09V125Z"/><path class="cls-4" d="M747.8,137.84V125H710.5v89.72h14.1v-37h18.2V164.89H724.6v-27Z"/><path class="cls-4" d="M793.06,137.84V125H754.61v89.72h38.45V201.92H768.71V175.64h19.36V162.83H768.71v-25Z"/><g class="cls-5"><g class="cls-6"><path class="cls-4" d="M217.85,256.05h-8.47a45.51,45.51,0,0,0-45.3-41.36A45,45,0,0,0,148,217.63C182,194.43,217.79,221.14,217.85,256.05Z"/><path class="cls-4" d="M109.47,225.75c5.06,5,9.76,16.34,9.81,26.62v.21c0,1.16,0,2.33-.14,3.47H101.78C101.89,244.64,104.08,234.94,109.47,225.75Z"/><path class="cls-4" d="M139.85,256.05H123.72a38.53,38.53,0,0,0-.41-8.37.25.25,0,0,1,0-.12,47.89,47.89,0,0,0-28.35-36.7,47.82,47.82,0,0,0-39,.36,47.91,47.91,0,0,0-28.06,43.64c0,.39,0,.8,0,1.19H.55C.18,250.91,0,245.76,0,240.54a218.86,218.86,0,0,1,20.44-92.68,215,215,0,0,1,14-25.6,221.17,221.17,0,0,1,72-70.21L108.29,51c-19.85,15.34-41,32.61-41,80.18C67.27,180,135.15,197.35,139.85,256.05Z"/></g></g><path class="cls-7" d="M848.3,124.94v88.3h-5.8v-88.3Z"/><path class="cls-7" d="M915.49,124.94c13.24,0,18,6.56,18,18.79v5.05c0,9.59-2.65,15.52-11.61,17.41,9.59,1.89,13.25,9,13.25,18.92v7.7c0,12.74-5.81,20.43-19.3,20.43H896.94v-88.3Zm-2.9,39c10.34,0,15.13-2.78,15.13-14v-5.68c0-9.21-2.9-14-12.36-14H902.75v33.68Zm3.28,44c9.71,0,13.49-5.43,13.49-15.27v-8c0-11.48-5.17-15.51-15.64-15.51h-11V208Z"/><path class="cls-7" d="M942.63,213.24v-88.3h5.8v83h27.75v5.29Z"/><path class="cls-7" d="M982.51,146.51c0-12.87,5.93-22.33,19.3-22.33,13.62,0,19.55,9.46,19.55,22.33v45.16c0,12.87-5.93,22.33-19.55,22.33-13.37,0-19.3-9.46-19.3-22.33Zm5.8,45.54c0,9.59,3.79,16.65,13.5,16.65s13.75-7.06,13.75-16.65V146.13c0-9.59-3.91-16.65-13.75-16.65s-13.5,7.06-13.5,16.65Z"/><path class="cls-7" d="M1067.67,146.51v6.56h-5.55v-6.94c0-9.46-3.66-16.65-13.37-16.65s-13.38,7.19-13.38,16.65v45.92c0,9.46,3.66,16.53,13.38,16.53s13.37-7.07,13.37-16.53V173h-11.73v-5.3h17.28v24c0,12.74-5.55,22.33-19.05,22.33s-19-9.59-19-22.33V146.51c0-12.74,5.55-22.33,19-22.33S1067.67,133.77,1067.67,146.51Z"/></g></g></svg>