<svg id="Vrstva_1" data-name="Vrstva 1" xmlns="http://www.w3.org/2000/svg" viewBox="0 0 167 167"><defs><style>.cls-1{fill:#c00613;}</style></defs><title>ikony serie</title><path class="cls-1" d="M130.7,87.6a14.29,14.29,0,0,0,3.58-9.71,12.68,12.68,0,0,0-12.51-12.52H103.72c.17-.61.35-1.13.52-1.57a10.88,10.88,0,0,1,.72-1.43c.3-.52.52-.91.65-1.17q1.18-2.22,1.79-3.65a26.43,26.43,0,0,0,1.24-3.91,20.28,20.28,0,0,0,.62-5q0-1.56,0-2.54a27.28,27.28,0,0,0-.33-2.93,16.36,16.36,0,0,0-.78-3.26A15.12,15.12,0,0,0,106.55,37a9.07,9.07,0,0,0-2.61-2.64,14.22,14.22,0,0,0-3.91-1.7A19.41,19.41,0,0,0,94.66,32a4,4,0,0,0-2.93,1.24,11.29,11.29,0,0,0-2.22,3.26,19.56,19.56,0,0,0-1.27,3.39q-.36,1.44-.82,4-.59,2.74-.88,3.94A20.84,20.84,0,0,1,85.4,51a10,10,0,0,1-2,3.13,97.05,97.05,0,0,0-6.58,7.82q-3.19,4.17-6.58,7.89t-5,3.85A4.28,4.28,0,0,0,62.46,75a3.94,3.94,0,0,0-1.17,2.84V119.6a3.91,3.91,0,0,0,1.24,2.9,4.31,4.31,0,0,0,2.93,1.27q2.28.07,10.3,2.87,5,1.69,7.86,2.57t7.92,1.89a48.47,48.47,0,0,0,9.38,1h8.41Q118,132,122.16,127q3.78-4.49,3.2-11.8a12.67,12.67,0,0,0,3.52-6.12,13.4,13.4,0,0,0,0-7.62,13.54,13.54,0,0,0,2.8-8.93,15.62,15.62,0,0,0-1-5Zm0,0"/><path class="cls-1" d="M52.94,73.71H34.17A4.23,4.23,0,0,0,30,77.89V119.6a4.23,4.23,0,0,0,4.17,4.17H52.94a4.23,4.23,0,0,0,4.17-4.17V77.89a4.23,4.23,0,0,0-4.17-4.17Zm-7.5,40.51a4.17,4.17,0,0,1-5.9-5.9,4.17,4.17,0,1,1,5.9,5.9Zm0,0"/></svg>