<svg id="Vrstva_1" data-name="Vrstva 1" xmlns="http://www.w3.org/2000/svg" viewBox="0 0 167 167"><defs><style>.cls-1{fill-rule:evenodd;}</style></defs><title>filtr</title><path class="cls-1" d="M101.14,60.91V57.42h29.63a5.23,5.23,0,1,0,0-10.46H101.14V43.48a7,7,0,0,0-7-7h-7a7,7,0,0,0-7,7V47H36.65a5.23,5.23,0,1,0,0,10.46H80.23v3.48a7,7,0,0,0,7,7h7a7,7,0,0,0,7-7ZM69.77,95.77V92.28h61a5.23,5.23,0,0,0,0-10.46h-61V78.34a7,7,0,0,0-7-7h-7a7,7,0,0,0-7,7v3.49H36.65a5.23,5.23,0,0,0,0,10.46h12.2v3.49a7,7,0,0,0,7,7h7a7,7,0,0,0,7-7Zm55.78,34.86v-3.49h5.23a5.23,5.23,0,0,0,0-10.46h-5.23V113.2a7,7,0,0,0-7-7h-7a7,7,0,0,0-7,7v3.49h-68a5.23,5.23,0,1,0,0,10.46h68v3.49a7,7,0,0,0,7,7h7a7,7,0,0,0,7-7Zm0,0"/></svg>