<svg id="Vrstva_1" data-name="Vrstva 1" xmlns="http://www.w3.org/2000/svg" xmlns:xlink="http://www.w3.org/1999/xlink" viewBox="0 0 167 167"><defs><style>.cls-1{fill:url(#Nepojmenovaný_přechod_3);}.cls-2{fill:none;stroke:#fff;stroke-linecap:round;stroke-miterlimit:10;stroke-width:5px;}.cls-3{fill:#fff;}</style><linearGradient id="Nepojmenovaný_přechod_3" x1="84" y1="-0.5" x2="84" y2="173.53" gradientUnits="userSpaceOnUse"><stop offset="0" stop-color="#8fb5cc"/><stop offset="1" stop-color="#6e95af"/></linearGradient></defs><title>IKONY</title><rect class="cls-1" x="3" y="3" width="162" height="162" rx="13.54" ry="13.54"/><rect class="cls-2" x="40.27" y="7.37" width="12.64" height="51.62" rx="5" ry="5" transform="translate(30.54 -21.72) rotate(38.24)"/><line class="cls-2" x1="41.85" y1="49.41" x2="50.95" y2="56.59"/><line class="cls-2" x1="46.46" y1="43.56" x2="55.56" y2="50.73"/><line class="cls-2" x1="51.08" y1="37.7" x2="60.18" y2="44.87"/><line class="cls-2" x1="55.69" y1="31.84" x2="64.79" y2="39.02"/><line class="cls-2" x1="60.31" y1="25.99" x2="69.41" y2="33.16"/><line class="cls-2" x1="64.92" y1="20.13" x2="74.02" y2="27.3"/><path class="cls-2" d="M20,51.61h7.37a0,0,0,0,1,0,0V77.95a0,0,0,0,1,0,0H23.51a3.5,3.5,0,0,1-3.5-3.5V51.61a0,0,0,0,1,0,0Z" transform="translate(45.18 -0.77) rotate(38.24)"/><path class="cls-3" d="M124.37,149.14H113L86.39,110.06l-25.66-5-9,44.55a5.28,5.28,0,0,0,4.09,6.24,5.52,5.52,0,0,0,1.08.11,5.28,5.28,0,0,0,5.15-4.2l5.09-24.42,9.07,18.06H71.44a5.27,5.27,0,0,0-5.27,5.27A5.33,5.33,0,0,0,71.44,156l52.94,0a3.43,3.43,0,1,0,0-6.86Zm0,0"/><path class="cls-3" d="M62.16,94.25c.6.2.59,6.33.59,6.33l24,4.47L90.7,82.66a20.21,20.21,0,0,1,1.68-4.16c3.22-6.07-1-7.35-2.06-7.46a6.73,6.73,0,0,0-6.13,2.91c-.87,1.11-1.72,2.24-2.56,3.37a.78.78,0,0,1-.93.33,21.7,21.7,0,0,0-2.16-.34c-4.13-.53-7.14,1.25-11.3,1.3-1.4,0-12.54-5.12-15.51-1.32-3.25,4.14-1.46,8.94,1.58,12.09a15.92,15.92,0,0,0,6.35,4l2.49.86Zm0,0"/><path class="cls-2" d="M141.72,76l5.82,1,4.51-3.24a2.78,2.78,0,0,0,.63-3.88l-2.57-3.58a2.78,2.78,0,0,0-1.81-1.12l-9.36-1.53a2.78,2.78,0,0,1-1.81-1.12L123.21,43.06a2.78,2.78,0,0,1-.49-2.07l1.53-9.36a2.78,2.78,0,0,0-.49-2.07L121.2,26a2.78,2.78,0,0,0-3.88-.63l-4.51,3.24-1,5.82-1.13.81-5.82-1-4.51,3.24a2.78,2.78,0,0,0-.63,3.88L102.33,45a2.78,2.78,0,0,0,1.81,1.12l9.36,1.53a2.78,2.78,0,0,1,1.81,1.12l13.93,19.37a2.78,2.78,0,0,1,.49,2.07l-1.53,9.36a2.78,2.78,0,0,0,.49,2.07l2.57,3.58a2.78,2.78,0,0,0,3.88.63l4.51-3.24,1-5.82Z"/></svg>