<svg id="Vrstva_1" data-name="Vrstva 1" xmlns="http://www.w3.org/2000/svg" xmlns:xlink="http://www.w3.org/1999/xlink" viewBox="0 0 167 167"><defs><style>.cls-1{fill:url(#Nepojmenovaný_přechod_3);}.cls-2{fill:none;stroke:#fff;stroke-linecap:round;stroke-miterlimit:10;stroke-width:5px;}</style><linearGradient id="Nepojmenovaný_přechod_3" x1="83.5" y1="-14.93" x2="83.5" y2="186.41" gradientUnits="userSpaceOnUse"><stop offset="0" stop-color="#8fb5cc"/><stop offset="1" stop-color="#6e95af"/></linearGradient></defs><title>IKONY</title><rect class="cls-1" x="2.5" y="2.5" width="162" height="162" rx="13.54" ry="13.54"/><path class="cls-2" d="M24.5,128.2V41.3a2.8,2.8,0,0,1,2.8-2.8h2.8a2.8,2.8,0,0,1,2.8,2.8V128.2a2.8,2.8,0,0,1-2.8,2.8H27.3A2.8,2.8,0,0,1,24.5,128.2Z"/><rect class="cls-2" x="32.91" y="97.36" width="100.91" height="16.82" rx="2.8" ry="2.8"/><rect class="cls-2" x="133.82" y="97.36" width="8.41" height="33.64" rx="2.8" ry="2.8"/><circle class="cls-2" cx="45.52" cy="84.75" r="12.61"/><rect class="cls-2" x="66.55" y="72.14" width="67.27" height="25.23" rx="2.8" ry="2.8"/></svg>