<svg id="Vrstva_1" data-name="Vrstva 1" xmlns="http://www.w3.org/2000/svg" xmlns:xlink="http://www.w3.org/1999/xlink" viewBox="0 0 167 167"><defs><style>.cls-1{fill:url(#linear-gradient);}.cls-2{fill:url(#linear-gradient-3);}</style><linearGradient id="linear-gradient" x1="84" y1="-780.66" x2="84" y2="-654.03" gradientTransform="matrix(1, 0, 0, -1, 0, -630)" gradientUnits="userSpaceOnUse"><stop offset="0" stop-color="#e09b3d"/><stop offset="0.3" stop-color="#c74c4d"/><stop offset="0.6" stop-color="#c21975"/><stop offset="1" stop-color="#7024c4"/></linearGradient><linearGradient id="linear-gradient-3" x1="117.17" y1="-780.66" x2="117.17" y2="-654.03" xlink:href="#linear-gradient"/></defs><title>ikony serie</title><path class="cls-1" d="M109.87,23H58.13A38.18,38.18,0,0,0,20,61.17V112.9A38.18,38.18,0,0,0,58.13,151h51.74A38.18,38.18,0,0,0,148,112.9V61.17A38.18,38.18,0,0,0,109.87,23Zm25.26,89.87a25.26,25.26,0,0,1-25.26,25.26H58.13A25.26,25.26,0,0,1,32.88,112.9V61.17A25.26,25.26,0,0,1,58.13,35.91h51.74a25.26,25.26,0,0,1,25.26,25.26V112.9Z"/><path class="cls-1" d="M84,53.93A33.11,33.11,0,1,0,117.11,87,33.14,33.14,0,0,0,84,53.93Zm0,53.33A20.23,20.23,0,1,1,104.23,87,20.23,20.23,0,0,1,84,107.26Z"/><circle class="cls-2" cx="117.17" cy="54.18" r="7.93"/></svg>