<?xml version="1.0" encoding="utf-8"?>
<!-- Generator: Adobe Illustrator 22.0.0, SVG Export Plug-In . SVG Version: 6.00 Build 0)  -->
<svg version="1.1" id="Vrstva_1" xmlns="http://www.w3.org/2000/svg" xmlns:xlink="http://www.w3.org/1999/xlink" x="0px" y="0px"
	 viewBox="0 0 100 100" style="enable-background:new 0 0 100 100;" xml:space="preserve">
<style type="text/css">
	.st0{fill:#F0F2F8;}
	.st1{fill:#939DAA;}
</style>
<circle class="st0" cx="50" cy="50" r="50"/>
<path id="path-1" class="st1" d="M65.4,48.3l-6.8,6.8c-1.4,1.4-3.1,2.3-5,2.7c-0.2,0-0.4,0.1-0.6,0.1c-0.4,0.1-0.7,0.1-1.1,0.1
	c-0.4,0-0.7,0-1.1,0c-0.3,0-0.6-0.1-1-0.1c-0.3-0.1-0.6-0.1-0.9-0.2c-1.5-0.4-2.9-1.2-4.1-2.4c-0.9-0.9-0.9-2.5,0-3.4
	c0.9-0.9,2.5-0.9,3.4,0c1.9,1.9,5,1.9,6.8,0l6.8-6.8c1.9-1.9,1.9-5,0-6.8c-1.9-1.9-5-1.9-6.8,0c0,0-2.7,2.7-2.9,2.9
	c-0.3,0.3-0.9,0.1-1.5,0c-1.2-0.3-2.5-0.5-3.8-0.4c-0.7,0-0.8-0.3-0.3-0.7l5.1-5.1c3.8-3.8,9.9-3.8,13.7,0
	C69.2,38.4,69.2,44.5,65.4,48.3z M48.4,42c1.2,0,2.4,0.3,3.5,0.7c0,0,0,0,0,0c0.4,0.2,0.8,0.4,1.2,0.6c0.7,0.4,1.3,0.9,1.9,1.5
	c0.9,0.9,0.9,2.5,0,3.4c-0.9,0.9-2.5,0.9-3.4,0c-1.9-1.9-5-1.9-6.8,0L38,55.1c-1.9,1.9-1.9,5,0,6.8c1.9,1.9,5,1.9,6.8,0
	c0,0,2.6-2.6,2.7-2.8c0.4-0.4,0.9-0.2,1.5,0c1.2,0.3,2.5,0.5,3.8,0.4c0.7,0,0.8,0.3,0.3,0.7l-5,5c-3.8,3.8-9.9,3.8-13.7,0
	c-3.8-3.8-3.8-9.9,0-13.7l6.8-6.8c0.7-0.7,1.5-1.3,2.3-1.7c1.4-0.8,3-1.1,4.5-1.1C48.4,42,48.4,42,48.4,42z"/>
</svg>
