<svg id="Vrstva_1" data-name="Vrstva 1" xmlns="http://www.w3.org/2000/svg" viewBox="0 0 167 167"><defs><style>.cls-1{fill:none;stroke:#636363;stroke-linecap:round;stroke-miterlimit:10;stroke-width:5px;}</style></defs><title>ikony serie</title><path class="cls-1" d="M140,81.41A47.48,47.48,0,0,1,124,106L82.65,140,42,106A47.53,47.53,0,0,1,26,81.41c-1.71-6.7-1-10.47-1-10.51l0-.22c1.58-16.35,13.89-28.22,29.28-28.22A28.41,28.41,0,0,1,80.4,59.26l2.24,4.88,2.24-4.88A29.35,29.35,0,0,1,111.7,42.47c15.38,0,27.7,11.87,29.31,28.42,0,0,.71,3.83-1,10.52Z"/></svg>