<svg id="Vrstva_1" data-name="Vrstva 1" xmlns="http://www.w3.org/2000/svg" viewBox="0 0 167 167"><defs><style>.cls-1{fill:#c00613;}.cls-2{fill:none;stroke:#fff;stroke-linecap:round;stroke-miterlimit:10;stroke-width:5px;}</style></defs><title>ikony serie</title><rect class="cls-1" x="2.5" y="2.5" width="162" height="162" rx="13.54" ry="13.54"/><circle class="cls-2" cx="88" cy="86" r="22.5"/><circle class="cls-2" cx="88" cy="86" r="40.5"/><path class="cls-2" d="M143.5,135.5h-3a3,3,0,0,1-3-3V49.21a3,3,0,0,1,5.68-1.34l3,6a3,3,0,0,1,.32,1.34V132.5A3,3,0,0,1,143.5,135.5Z"/><line class="cls-2" x1="137.5" y1="90.5" x2="146.5" y2="90.5"/><path class="cls-2" d="M35.63,135.5H32.38a2.87,2.87,0,0,1-2.87-2.87V81.5h6.13a2.88,2.88,0,0,1,2.88,2.88v48.25A2.87,2.87,0,0,1,35.63,135.5Z"/><path class="cls-2" d="M20.5,45.5V62.79a3,3,0,0,0,.32,1.34l8.65,17.3a.11.11,0,0,0,.1.06H38.5v-36"/><line class="cls-2" x1="29.5" y1="45.5" x2="29.5" y2="63.5"/></svg>