<svg id="Vrstva_1" data-name="Vrstva 1" xmlns="http://www.w3.org/2000/svg" viewBox="0 0 167 167"><defs><style>.cls-1{fill:none;stroke:#fff;stroke-linecap:round;stroke-miterlimit:10;stroke-width:5px;}.cls-2{fill:#fff;}</style></defs><title>IKONY</title><rect class="cls-1" x="40.27" y="8.37" width="12.64" height="51.62" rx="5" ry="5" transform="translate(31.15 -21.5) rotate(38.24)"/><line class="cls-1" x1="41.85" y1="50.41" x2="50.95" y2="57.59"/><line class="cls-1" x1="46.46" y1="44.56" x2="55.56" y2="51.73"/><line class="cls-1" x1="51.08" y1="38.7" x2="60.18" y2="45.87"/><line class="cls-1" x1="55.69" y1="32.84" x2="64.79" y2="40.02"/><line class="cls-1" x1="60.31" y1="26.99" x2="69.41" y2="34.16"/><line class="cls-1" x1="64.92" y1="21.13" x2="74.02" y2="28.3"/><path class="cls-1" d="M20,52.61h7.37a0,0,0,0,1,0,0V78.95a0,0,0,0,1,0,0H23.51a3.5,3.5,0,0,1-3.5-3.5V52.61a0,0,0,0,1,0,0Z" transform="translate(45.8 -0.56) rotate(38.24)"/><path class="cls-2" d="M124.37,150.14H113L86.39,111.06l-25.66-5-9,44.55a5.28,5.28,0,0,0,4.09,6.24,5.52,5.52,0,0,0,1.08.11,5.28,5.28,0,0,0,5.15-4.2l5.09-24.42,9.07,18.06H71.44a5.27,5.27,0,0,0-5.27,5.27A5.33,5.33,0,0,0,71.44,157l52.94,0a3.43,3.43,0,1,0,0-6.86Zm0,0"/><path class="cls-2" d="M62.16,95.25c.6.2.59,6.33.59,6.33l24,4.47L90.7,83.66a20.21,20.21,0,0,1,1.68-4.16c3.22-6.07-1-7.35-2.06-7.46a6.73,6.73,0,0,0-6.13,2.91c-.87,1.11-1.72,2.24-2.56,3.37a.78.78,0,0,1-.93.33,21.7,21.7,0,0,0-2.16-.34c-4.13-.53-7.14,1.25-11.3,1.3-1.4,0-12.54-5.12-15.51-1.32-3.25,4.14-1.46,8.94,1.58,12.09a15.92,15.92,0,0,0,6.35,4l2.49.86Zm0,0"/><path class="cls-1" d="M141.72,77l5.82,1,4.51-3.24a2.78,2.78,0,0,0,.63-3.88l-2.57-3.58a2.78,2.78,0,0,0-1.81-1.12l-9.36-1.53a2.78,2.78,0,0,1-1.81-1.12L123.21,44.06a2.78,2.78,0,0,1-.49-2.07l1.53-9.36a2.78,2.78,0,0,0-.49-2.07L121.2,27a2.78,2.78,0,0,0-3.88-.63l-4.51,3.24-1,5.82-1.13.81-5.82-1-4.51,3.24a2.78,2.78,0,0,0-.63,3.88L102.33,46a2.78,2.78,0,0,0,1.81,1.12l9.36,1.53a2.78,2.78,0,0,1,1.81,1.12l13.93,19.37a2.78,2.78,0,0,1,.49,2.07l-1.53,9.36a2.78,2.78,0,0,0,.49,2.07l2.57,3.58a2.78,2.78,0,0,0,3.88.63l4.51-3.24,1-5.82Z"/></svg>