<svg id="Vrstva_1" data-name="Vrstva 1" xmlns="http://www.w3.org/2000/svg" viewBox="0 0 167 167"><defs><style>.cls-1{fill:#c00613;}.cls-2{fill:none;stroke:#fff;stroke-linecap:round;stroke-miterlimit:10;stroke-width:5px;}.cls-3{fill:#fff;}</style></defs><title>IKONY</title><rect class="cls-1" x="3" y="3" width="162" height="162" rx="13.54" ry="13.54"/><rect class="cls-2" x="40.27" y="9.37" width="12.64" height="51.62" rx="5" ry="5" transform="translate(31.77 -21.29) rotate(38.24)"/><line class="cls-2" x1="41.85" y1="51.41" x2="50.95" y2="58.59"/><line class="cls-2" x1="46.46" y1="45.56" x2="55.56" y2="52.73"/><line class="cls-2" x1="51.08" y1="39.7" x2="60.18" y2="46.87"/><line class="cls-2" x1="55.69" y1="33.84" x2="64.79" y2="41.02"/><line class="cls-2" x1="60.31" y1="27.99" x2="69.41" y2="35.16"/><line class="cls-2" x1="64.92" y1="22.13" x2="74.02" y2="29.3"/><path class="cls-2" d="M20,53.61h7.37a0,0,0,0,1,0,0V79.95a0,0,0,0,1,0,0H23.51a3.5,3.5,0,0,1-3.5-3.5V53.61a0,0,0,0,1,0,0Z" transform="translate(46.42 -0.34) rotate(38.24)"/><path class="cls-3" d="M123.37,151.14H112L85.39,112.06l-25.66-5-9,44.55a5.28,5.28,0,0,0,4.09,6.24,5.52,5.52,0,0,0,1.08.11,5.28,5.28,0,0,0,5.15-4.2l5.09-24.42,9.07,18.06H70.44a5.27,5.27,0,0,0-5.27,5.27A5.33,5.33,0,0,0,70.44,158l52.94,0a3.43,3.43,0,1,0,0-6.86Zm0,0"/><path class="cls-3" d="M61.16,96.25c.6.2.59,6.33.59,6.33l24,4.47L89.7,84.66a20.21,20.21,0,0,1,1.68-4.16c3.22-6.07-1-7.35-2.06-7.46a6.73,6.73,0,0,0-6.13,2.91c-.87,1.11-1.72,2.24-2.56,3.37a.78.78,0,0,1-.93.33,21.7,21.7,0,0,0-2.16-.34c-4.13-.53-7.14,1.25-11.3,1.3-1.4,0-12.54-5.12-15.51-1.32-3.25,4.14-1.46,8.94,1.58,12.09a15.92,15.92,0,0,0,6.35,4l2.49.86Zm0,0"/><path class="cls-2" d="M141.72,78l5.82,1,4.51-3.24a2.78,2.78,0,0,0,.63-3.88l-2.57-3.58a2.78,2.78,0,0,0-1.81-1.12l-9.36-1.53a2.78,2.78,0,0,1-1.81-1.12L123.21,45.06a2.78,2.78,0,0,1-.49-2.07l1.53-9.36a2.78,2.78,0,0,0-.49-2.07L121.2,28a2.78,2.78,0,0,0-3.88-.63l-4.51,3.24-1,5.82-1.13.81-5.82-1-4.51,3.24a2.78,2.78,0,0,0-.63,3.88L102.33,47a2.78,2.78,0,0,0,1.81,1.12l9.36,1.53a2.78,2.78,0,0,1,1.81,1.12l13.93,19.37a2.78,2.78,0,0,1,.49,2.07l-1.53,9.36a2.78,2.78,0,0,0,.49,2.07l2.57,3.58a2.78,2.78,0,0,0,3.88.63l4.51-3.24,1-5.82Z"/></svg>