<?xml version="1.0" standalone="no"?>
<!DOCTYPE svg PUBLIC "-//W3C//DTD SVG 20010904//EN"
 "http://www.w3.org/TR/2001/REC-SVG-20010904/DTD/svg10.dtd">
<svg version="1.0" xmlns="http://www.w3.org/2000/svg"
 width="300.000000pt" height="300.000000pt" viewBox="0 0 300.000000 300.000000"
 preserveAspectRatio="xMidYMid meet">
<metadata>
Created by potrace 1.11, written by Peter Selinger 2001-2013
</metadata>
<g transform="translate(0.000000,300.000000) scale(0.100000,-0.100000)"
fill="#000000" stroke="none">
<path d="M1591 2935 c-3 -100 -49 -241 -108 -330 -48 -73 -146 -159 -261 -230
-180 -111 -317 -219 -467 -370 -145 -144 -227 -243 -332 -400 -201 -301 -343
-668 -393 -1020 -6 -44 -14 -91 -17 -105 -3 -14 -6 -123 -8 -242 l-4 -218 162
0 162 0 2 52 c4 83 43 200 91 271 156 231 463 310 713 185 183 -91 302 -279
308 -486 l1 -23 158 3 157 3 -1 135 c0 114 -12 223 -30 291 -10 38 195 61 303
33 137 -35 261 -123 327 -232 45 -75 72 -153 75 -214 1 -16 14 -18 127 -18
l127 0 -7 73 c-6 61 -18 129 -42 244 -7 37 -64 194 -94 259 -37 83 -103 194
-163 276 -35 49 -47 72 -40 80 6 7 20 40 33 73 26 69 31 191 10 265 l-12 45
-28 -55 c-28 -55 -86 -121 -139 -159 l-28 -20 -44 39 c-64 58 -221 162 -317
210 l-83 42 37 67 c19 36 42 72 49 80 11 11 49 14 162 15 157 1 231 -6 327
-28 81 -19 148 -12 258 25 210 73 371 254 421 474 21 89 17 238 -8 323 l-18
62 -356 0 c-211 0 -382 4 -417 11 -271 49 -484 235 -575 504 l-17 50 -1 -40z"/>
<path d="M1253 335 c-39 -77 -58 -151 -67 -258 l-5 -58 102 3 102 3 -1 45 c-1
93 -41 216 -88 275 l-23 29 -20 -39z"/>
</g>
</svg>
